<svg width="25" height="24" viewBox="0 0 25 24" fill="none" xmlns="http://www.w3.org/2000/svg">
<path d="M12.5 20C14.6217 20 16.6566 19.1571 18.1569 17.6569C19.6571 16.1566 20.5 14.1217 20.5 12C20.5 9.87827 19.6571 7.84344 18.1569 6.34315C16.6566 4.84285 14.6217 4 12.5 4C10.3783 4 8.34344 4.84285 6.84315 6.34315C5.34285 7.84344 4.5 9.87827 4.5 12C4.5 14.1217 5.34285 16.1566 6.84315 17.6569C8.34344 19.1571 10.3783 20 12.5 20ZM12.5 2C13.8132 2 15.1136 2.25866 16.3268 2.7612C17.5401 3.26375 18.6425 4.00035 19.5711 4.92893C20.4997 5.85752 21.2362 6.95991 21.7388 8.17317C22.2413 9.38642 22.5 10.6868 22.5 12C22.5 14.6522 21.4464 17.1957 19.5711 19.0711C17.6957 20.9464 15.1522 22 12.5 22C6.97 22 2.5 17.5 2.5 12C2.5 9.34784 3.55357 6.8043 5.42893 4.92893C7.3043 3.05357 9.84784 2 12.5 2ZM13 7V12.25L17.5 14.92L16.75 16.15L11.5 13V7H13Z" fill="#8C8C8C"/>
</svg>
