<svg width="41" height="40" viewBox="0 0 41 40" fill="none" xmlns="http://www.w3.org/2000/svg">
<g clip-path="url(#clip0_936_115)">
<path d="M40.3318 14.7679V12.286L22.1796 3.05604V0H19.1029V3.05604L0.950684 12.286V14.7679C0.950684 17.0591 2.07166 19.1641 4.02733 20.2284V36.3045H0.950684V39.3811H40.3318V36.3045H37.2552V20.2284C39.2114 19.1637 40.3318 17.0584 40.3318 14.7679ZM4.02733 14.1732L20.6412 5.72542L37.2552 14.1732V14.7679C37.2552 16.2968 36.304 17.8446 34.4862 17.8446H34.1785C32.3607 17.8446 31.4095 16.2968 31.4095 14.7679H28.3329C28.3329 16.4644 26.9527 17.8446 25.2562 17.8446C23.5598 17.8446 22.1796 16.4644 22.1796 14.7679H19.1029C19.1029 16.4644 17.7227 17.8446 16.0263 17.8446C14.3298 17.8446 12.9496 16.4644 12.9496 14.7679H9.87297C9.87297 16.4644 8.49278 17.8446 6.79632 17.8446C4.97848 17.8446 4.02733 16.2968 4.02733 14.7679V14.1732ZM15.9987 36.3045C17.9763 34.8357 19.5683 32.911 20.6412 30.7023C21.7141 32.911 23.3062 34.8357 25.2838 36.3045H15.9987ZM33.1372 36.3045L31.4611 35.8854C25.9963 34.5192 22.1796 29.6309 22.1796 23.9979H19.1029C19.1029 29.6309 15.2862 34.5192 9.82144 35.8854L8.14528 36.3045H7.10398V20.9134C8.81668 20.8286 10.3462 20.0395 11.4113 18.8314C12.5397 20.1114 14.1897 20.9212 16.0263 20.9212C17.8628 20.9212 19.5128 20.1114 20.6412 18.8315C21.7697 20.1114 23.4197 20.9212 25.2562 20.9212C27.0535 20.9212 28.6731 20.1464 29.7991 18.9136C29.8423 18.9645 29.8852 19.0157 29.9301 19.0652C31.0167 20.2621 32.5255 20.9212 34.1785 20.9212V36.3045H33.1372Z" fill="#FBEF39"/>
<path d="M28.333 23.9978H31.4097V30.1511H28.333V23.9978Z" fill="#FBEF39"/>
<path d="M9.87305 23.9978H12.9497V30.1511H9.87305V23.9978Z" fill="black"/>
</g>
<defs>
<clipPath id="clip0_936_115">
<rect width="39.3811" height="39.3811" fill="white" transform="translate(0.950684)"/>
</clipPath>
</defs>
</svg>
