<svg width="40" height="40" viewBox="0 0 40 40" fill="none" xmlns="http://www.w3.org/2000/svg">
<g clip-path="url(#clip0_936_140)">
<path d="M0.624023 0V3.06942H6.45592V6.40281C4.66967 7.03634 3.3865 8.74225 3.3865 10.743C3.3865 13.2817 5.45191 15.3471 7.99063 15.3471C10.5294 15.3471 12.5948 13.2817 12.5948 10.743C12.5948 8.74225 11.3116 7.03634 9.52534 6.40281V3.06942H18.7336V6.40281C16.9474 7.03634 15.6642 8.74225 15.6642 10.743C15.6642 11.4002 15.8507 12.5489 17.4636 14.9261C18.2647 16.1067 19.057 17.0581 19.0903 17.0981L20.2684 18.5091L21.4465 17.0981C21.4798 17.0581 22.272 16.1068 23.0732 14.9261C24.6861 12.5489 24.8726 11.4002 24.8726 10.743C24.8726 8.74225 23.5894 7.03634 21.8032 6.40281V3.06942H31.0114V6.40281C29.2252 7.03634 27.942 8.74225 27.942 10.743C27.942 13.2817 30.0074 15.3471 32.5462 15.3471C35.0849 15.3471 37.1503 13.2817 37.1503 10.743C37.1503 8.74225 35.8671 7.03634 34.0809 6.40281V3.06942H39.9128V0H0.624023ZM7.99063 12.2777C7.14439 12.2777 6.45592 11.5892 6.45592 10.743C6.45592 9.89673 7.14439 9.20826 7.99063 9.20826C8.83687 9.20826 9.52534 9.89673 9.52534 10.743C9.52534 11.5892 8.83687 12.2777 7.99063 12.2777ZM20.5251 13.2144C20.4393 13.3408 20.3532 13.4646 20.2683 13.5846C20.1834 13.4646 20.0973 13.3408 20.0115 13.2144C18.7694 11.3863 18.7338 10.7469 18.7336 10.743C18.7336 9.89673 19.4221 9.20826 20.2683 9.20826C21.114 9.20826 21.8021 9.89573 21.803 10.7413C21.8016 10.7641 21.7506 11.4106 20.5251 13.2144ZM32.546 12.2777C31.6998 12.2777 31.0113 11.5892 31.0113 10.743C31.0113 9.89673 31.6998 9.20826 32.546 9.20826C33.3922 9.20826 34.0807 9.89673 34.0807 10.743C34.0807 11.5892 33.3922 12.2777 32.546 12.2777Z" fill="#FBEF39"/>
<path d="M0.624023 23.9415H6.45592V27.2749C4.66967 27.9084 3.3865 29.6143 3.3865 31.615C3.3865 32.2723 3.57305 33.4209 5.18595 35.7981C5.98699 36.9788 6.77929 37.9302 6.81259 37.9701L7.99071 39.3811L9.16883 37.9701C9.20213 37.9302 9.99435 36.9789 10.7955 35.7981C12.4084 33.4209 12.5949 32.2723 12.5949 31.615C12.5949 29.6143 11.3117 27.9084 9.5255 27.2749V23.9415H18.7338V27.2749C16.9475 27.9084 15.6643 29.6143 15.6643 31.615C15.6643 34.1538 17.7297 36.2192 20.2685 36.2192C22.8072 36.2192 24.8726 34.1538 24.8726 31.615C24.8726 29.6143 23.5894 27.9084 21.8032 27.2749V23.9415H31.0114V27.2749C29.2252 27.9084 27.942 29.6143 27.942 31.615C27.942 32.2723 28.1286 33.4209 29.7415 35.7981C30.5425 36.9788 31.3348 37.9302 31.3681 37.9701L32.5462 39.3811L33.7243 37.9701C33.7576 37.9302 34.5499 36.9789 35.351 35.7981C36.9639 33.4209 37.1504 32.2723 37.1504 31.615C37.1504 29.6143 35.8673 27.9084 34.081 27.2749V23.9415H39.9129V20.8721H0.62433V23.9415H0.624023ZM8.24747 34.0865C8.1616 34.2128 8.0755 34.3367 7.99063 34.4566C7.90576 34.3367 7.81967 34.2128 7.7338 34.0865C6.49176 32.2584 6.45608 31.619 6.45592 31.615C6.45592 30.7688 7.14439 30.0803 7.99063 30.0803C8.83633 30.0803 9.52442 30.7678 9.52534 31.6134C9.52396 31.6362 9.47293 32.2827 8.24747 34.0865ZM20.2683 33.1498C19.4221 33.1498 18.7336 32.4613 18.7336 31.615C18.7336 30.7688 19.4221 30.0803 20.2683 30.0803C21.1146 30.0803 21.803 30.7688 21.803 31.615C21.803 32.4613 21.1146 33.1498 20.2683 33.1498ZM32.8028 34.0865C32.717 34.2128 32.6309 34.3367 32.546 34.4566C32.4611 34.3367 32.375 34.2128 32.2892 34.0865C31.0471 32.2584 31.0114 31.619 31.0113 31.615C31.0113 30.7688 31.6998 30.0803 32.546 30.0803C33.3917 30.0803 34.0798 30.7678 34.0807 31.6134C34.0793 31.6362 34.0283 32.2827 32.8028 34.0865Z" fill="#FBEF39"/>
</g>
<defs>
<clipPath id="clip0_936_140">
<rect width="39.3811" height="39.3811" fill="white" transform="translate(0.577637)"/>
</clipPath>
</defs>
</svg>
