<svg width="40" height="40" viewBox="0 0 40 40" fill="none" xmlns="http://www.w3.org/2000/svg">
<g clip-path="url(#clip0_936_224)">
<path d="M38.3553 14.4326L29.1254 19.0475V13.841C30.9924 12.4363 32.202 10.2026 32.202 7.69163C32.202 3.45046 28.7517 0 24.5104 0C21.9971 0 19.7615 1.21182 18.3571 3.08173C16.9527 1.21182 14.7171 0 12.2038 0C7.96258 0 4.5122 3.45046 4.5122 7.69163C4.5122 10.2026 5.72186 12.4364 7.58885 13.841V18.4599H4.5122V15.3833H1.43555V24.6132H4.5122V21.5366H7.58885V30.7665H16.8188V39.3811H19.8954V30.7665H29.1254V24.0256L38.3553 28.6405V14.4326ZM24.5104 3.07665C27.0551 3.07665 29.1254 5.14693 29.1254 7.69163C29.1254 10.2363 27.0551 12.3066 24.5104 12.3066C21.9657 12.3066 19.8954 10.2363 19.8954 7.69163C19.8954 5.14693 21.9657 3.07665 24.5104 3.07665ZM12.2038 3.07665C14.7485 3.07665 16.8188 5.14693 16.8188 7.69163C16.8188 10.2363 14.7485 12.3066 12.2038 12.3066C9.65913 12.3066 7.58885 10.2363 7.58885 7.69163C7.58885 5.14693 9.65913 3.07665 12.2038 3.07665ZM26.0487 27.6899H10.6655V15.3833H26.0487V27.6899ZM35.2787 23.6625L31.0268 21.5366L35.2787 19.4106V23.6625Z" fill="#FBEF39"/>
<path d="M22.9722 6.15332H26.0488V9.22997H22.9722V6.15332Z" fill="#FBEF39"/>
<path d="M10.6655 6.15332H13.7422V9.22997H10.6655V6.15332Z" fill="#FBEF39"/>
<path d="M13.7422 18.46H19.8955V21.5366H13.7422V18.46Z" fill="black"/>
</g>
<defs>
<clipPath id="clip0_936_224">
<rect width="39.3811" height="39.3811" fill="white" transform="translate(0.205078)"/>
</clipPath>
</defs>
</svg>
