<svg width="41" height="40" viewBox="0 0 41 40" fill="none" xmlns="http://www.w3.org/2000/svg">
<g clip-path="url(#clip0_936_124)">
<path d="M20.6411 15.3529V30.4158C20.1596 30.2451 19.642 30.1512 19.1028 30.1512C16.5581 30.1512 14.4878 32.2215 14.4878 34.7662C14.4878 37.3109 16.5581 39.3812 19.1028 39.3812C21.6475 39.3812 23.7177 37.3109 23.7177 34.7662V24.1496L36.0243 21.6882V27.3393C35.5428 27.1685 35.0253 27.0747 34.486 27.0747C31.9413 27.0747 29.871 29.145 29.871 31.6897C29.871 34.2343 31.9413 36.3046 34.486 36.3046C37.0307 36.3046 39.101 34.2343 39.101 31.6897V11.6609L20.6411 15.3529ZM19.1028 36.3045C18.2545 36.3045 17.5644 35.6145 17.5644 34.7662C17.5644 33.918 18.2545 33.2279 19.1028 33.2279C19.951 33.2279 20.6411 33.918 20.6411 34.7662C20.6411 35.6145 19.951 36.3045 19.1028 36.3045ZM23.7177 21.0119V17.8751L36.0243 15.4138V18.5506L23.7177 21.0119ZM34.486 33.2279C33.6378 33.2279 32.9477 32.5378 32.9477 31.6896C32.9477 30.8413 33.6378 30.1512 34.486 30.1512C35.3343 30.1512 36.0243 30.8413 36.0243 31.6896C36.0243 32.5378 35.3343 33.2279 34.486 33.2279Z" fill="#FBEF39"/>
<path d="M14.4878 8.4021C15.3936 8.92744 16.4441 9.22995 17.5644 9.22995V6.1533C15.8679 6.1533 14.4878 4.77312 14.4878 3.07665V0H11.4111V12.2635C10.9296 12.0928 10.412 11.9989 9.87279 11.9989C7.32809 11.9989 5.25781 14.0692 5.25781 16.6139C5.25781 19.1586 7.32809 21.2289 9.87279 21.2289C12.4175 21.2289 14.4878 19.1586 14.4878 16.6139V8.4021ZM9.87279 18.1522C9.02456 18.1522 8.33446 17.4621 8.33446 16.6139C8.33446 15.7657 9.02456 15.0756 9.87279 15.0756C10.721 15.0756 11.4111 15.7657 11.4111 16.6139C11.4111 17.4621 10.721 18.1522 9.87279 18.1522Z" fill="#FBEF39"/>
<path d="M26.7944 6.15332H29.8711V9.22997H26.7944V6.15332Z" fill="#FBEF39"/>
<path d="M29.8711 3.07666H32.9477V6.15331H29.8711V3.07666Z" fill="#FBEF39"/>
<path d="M23.7178 3.07666H26.7944V6.15331H23.7178V3.07666Z" fill="#FBEF39"/>
<path d="M26.7944 0H29.8711V3.07665H26.7944V0Z" fill="#FBEF39"/>
<path d="M5.25781 30.4587H8.33446V33.5354H5.25781V30.4587Z" fill="#FBEF39"/>
<path d="M8.33447 27.3821H11.4111V30.4587H8.33447V27.3821Z" fill="#FBEF39"/>
<path d="M2.18115 27.3821H5.2578V30.4587H2.18115V27.3821Z" fill="#FBEF39"/>
<path d="M5.25781 24.3054H8.33446V27.3821H5.25781V24.3054Z" fill="#FBEF39"/>
</g>
<defs>
<clipPath id="clip0_936_124">
<rect width="39.3811" height="39.3811" fill="white" transform="translate(0.950684)"/>
</clipPath>
</defs>
</svg>
