<svg width="40" height="40" viewBox="0 0 40 40" fill="none" xmlns="http://www.w3.org/2000/svg">
<g clip-path="url(#clip0_936_156)">
<path d="M37.0522 27.4912L37.0378 27.4339L33.9593 18.1982C33.5604 16.692 32.4464 15.5275 31.0365 15.0307V8.61462H27.9599V14.7679H24.8832V10.1529C24.8832 8.14751 23.597 6.43766 21.8066 5.80256V0H18.7299V5.80256C16.9395 6.43758 15.6533 8.14751 15.6533 10.1529V14.7679H12.5766V8.61462H9.49998V15.0307C8.09011 15.5275 6.97613 16.692 6.57716 18.1982L3.49867 27.4338L3.48436 27.4911C3.39298 27.8565 3.34668 28.2339 3.34668 28.6128C3.34668 31.1575 5.41696 33.2278 7.96165 33.2278C9.1427 33.2278 10.2211 32.7813 11.0383 32.0489C11.8554 32.7813 12.9338 33.2278 14.115 33.2278C15.296 33.2278 16.3744 32.7813 17.1916 32.0489C17.6356 32.4469 18.1569 32.7599 18.7299 32.9632V36.3045H14.115V39.3811H26.4216V36.3045H21.8066V32.9632C22.3796 32.76 22.9009 32.447 23.3449 32.049C24.1621 32.7813 25.2405 33.2278 26.4216 33.2278C27.6027 33.2278 28.6811 32.7813 29.4982 32.0489C30.3154 32.7813 31.3938 33.2278 32.5749 33.2278C35.1196 33.2278 37.1898 31.1575 37.1898 28.6128C37.1898 28.2339 37.1435 27.8565 37.0522 27.4912ZM18.7299 10.1529C18.7299 9.30471 19.42 8.61462 20.2683 8.61462C21.1165 8.61462 21.8066 9.30471 21.8066 10.1529V14.7679H18.7299V10.1529ZM32.5749 30.1512C31.7266 30.1512 31.0365 29.4611 31.0365 28.6128V27.0745H27.9599V28.6128C27.9599 29.4611 27.2698 30.1512 26.4216 30.1512C25.5733 30.1512 24.8832 29.4611 24.8832 28.6128V27.0745H21.8066V28.6128C21.8066 29.4611 21.1165 30.1512 20.2683 30.1512C19.42 30.1512 18.7299 29.4611 18.7299 28.6128V27.0745H15.6533V28.6128C15.6533 29.4611 14.9632 30.1512 14.115 30.1512C13.2667 30.1512 12.5766 29.4611 12.5766 28.6128V27.0745H9.49998V28.6128C9.49998 29.4611 8.80989 30.1512 7.96165 30.1512C7.11342 30.1512 6.42333 29.4611 6.42333 28.6128C6.42333 28.5018 6.43502 28.3916 6.4581 28.2848L9.54582 19.0074C9.71696 18.3228 10.3307 17.8446 11.0383 17.8446H29.4982C30.2058 17.8446 30.8196 18.3228 30.9908 19.0074L34.0785 28.2848C34.1016 28.3916 34.1133 28.5018 34.1133 28.6128C34.1132 29.4611 33.4231 30.1512 32.5749 30.1512Z" fill="#FBEF39"/>
</g>
<defs>
<clipPath id="clip0_936_156">
<rect width="39.3811" height="39.3811" fill="white" transform="translate(0.577637)"/>
</clipPath>
</defs>
</svg>
