<svg width="40" height="40" viewBox="0 0 40 40" fill="none" xmlns="http://www.w3.org/2000/svg">
<g clip-path="url(#clip0_936_309)">
<path d="M39.5862 3.07665V0H0.205078V3.07665H3.28173V6.1533H0.205078V9.22995H3.28173V15.3833H0.205078V36.3045H12.204V39.3811H27.5873V36.3045H39.5862V15.3833H36.5096V9.22995H39.5862V6.1533H36.5096V3.07665H39.5862ZM24.5106 3.07665V6.1533H15.2807V3.07665H24.5106ZM6.35838 3.07665H12.204V6.1533H6.35838V3.07665ZM3.28173 18.4599H6.35838V23.9979H3.28173V18.4599ZM24.5106 36.3045H15.2807V33.2278H24.5106V36.3045ZM36.5096 33.2278H27.5873V30.1512H12.204V33.2278H3.28173V27.0745H36.5096V33.2278ZM33.4329 23.9979V18.4599H36.5096V23.9979H33.4329ZM33.4329 15.3833H30.3563V23.9979H21.434V20.6354L24.06 18.0093L21.8845 15.8338L18.3573 19.3611V23.9979H9.43503V15.3833H6.35838V9.22995H12.204V12.3066H15.2807V9.22995H24.5106V12.3066H27.5873V9.22995H33.4329V15.3833ZM33.4329 6.1533H27.5873V3.07665H33.4329V6.1533Z" fill="#FBEF39"/>
</g>
<defs>
<clipPath id="clip0_936_309">
<rect width="39.3811" height="39.3811" fill="white" transform="translate(0.205078)"/>
</clipPath>
</defs>
</svg>
