<svg width="60" height="60" viewBox="0 0 60 60" fill="none" xmlns="http://www.w3.org/2000/svg">
<g clip-path="url(#clip0_843_3566)">
<path d="M60 28.125H55.6751C54.5674 15.7545 44.7143 5.90133 32.3438 4.79367V0H27.6562V4.79367C15.2857 5.90133 5.43258 15.7545 4.32492 28.125H0V32.8125H11.499C8.45484 35.7926 6.5625 39.9449 6.5625 44.5312V60H25.3125V53.9062C25.3125 52.6139 26.3639 51.5625 27.6562 51.5625H37.0312C46.0777 51.5625 53.4375 44.2027 53.4375 35.1562C53.4375 34.3346 53.2945 33.5461 53.0344 32.8125H60V28.125ZM30 9.375C40.8389 9.375 49.7931 17.5929 50.9629 28.125H9.03715C10.2069 17.5929 19.1611 9.375 30 9.375ZM48.75 35.1562C48.75 41.618 43.493 46.875 37.0312 46.875H26.9262V46.9126C23.391 47.2791 20.625 50.2758 20.625 53.9062V55.3125H11.25V44.5312C11.25 38.0695 16.507 32.8125 22.9688 32.8125H37.0312C38.3236 32.8125 39.375 33.8639 39.375 35.1562C39.375 36.4486 38.3236 37.5 37.0312 37.5H27.6562H20.625V42.1875H27.6562H37.0312C40.9083 42.1875 44.0625 39.0333 44.0625 35.1562C44.0625 33.8639 45.1139 32.8125 46.4062 32.8125C47.6986 32.8125 48.75 33.8639 48.75 35.1562Z" fill="#FBEF39"/>
</g>
<defs>
<clipPath id="clip0_843_3566">
<rect width="60" height="60" fill="white"/>
</clipPath>
</defs>
</svg>
