<svg width="51" height="50" viewBox="0 0 51 50" fill="none" xmlns="http://www.w3.org/2000/svg">
<circle cx="25.5" cy="25" r="25" fill="#3B3B3B"/>
<path d="M25.501 22C24.7054 22 23.9423 22.3161 23.3797 22.8787C22.8171 23.4413 22.501 24.2044 22.501 25C22.501 25.7956 22.8171 26.5587 23.3797 27.1213C23.9423 27.6839 24.7054 28 25.501 28C26.2966 28 27.0597 27.6839 27.6223 27.1213C28.1849 26.5587 28.501 25.7956 28.501 25C28.501 24.2044 28.1849 23.4413 27.6223 22.8787C27.0597 22.3161 26.2966 22 25.501 22ZM25.501 20C26.8271 20 28.0989 20.5268 29.0365 21.4645C29.9742 22.4021 30.501 23.6739 30.501 25C30.501 26.3261 29.9742 27.5979 29.0365 28.5355C28.0989 29.4732 26.8271 30 25.501 30C24.1749 30 22.9031 29.4732 21.9655 28.5355C21.0278 27.5979 20.501 26.3261 20.501 25C20.501 23.6739 21.0278 22.4021 21.9655 21.4645C22.9031 20.5268 24.1749 20 25.501 20ZM32.001 19.75C32.001 20.0815 31.8693 20.3995 31.6349 20.6339C31.4005 20.8683 31.0825 21 30.751 21C30.4195 21 30.1015 20.8683 29.8671 20.6339C29.6327 20.3995 29.501 20.0815 29.501 19.75C29.501 19.4185 29.6327 19.1005 29.8671 18.8661C30.1015 18.6317 30.4195 18.5 30.751 18.5C31.0825 18.5 31.4005 18.6317 31.6349 18.8661C31.8693 19.1005 32.001 19.4185 32.001 19.75ZM25.501 17C23.027 17 22.623 17.007 21.472 17.058C20.688 17.095 20.162 17.2 19.674 17.39C19.2656 17.5399 18.8964 17.7803 18.594 18.093C18.281 18.3954 18.0404 18.7646 17.89 19.173C17.7 19.663 17.595 20.188 17.559 20.971C17.507 22.075 17.5 22.461 17.5 25C17.5 27.475 17.507 27.878 17.558 29.029C17.595 29.812 17.7 30.339 17.889 30.826C18.059 31.261 18.259 31.574 18.591 31.906C18.928 32.242 19.241 32.443 19.671 32.609C20.165 32.8 20.691 32.906 21.471 32.942C22.575 32.994 22.961 33 25.5 33C27.975 33 28.378 32.993 29.529 32.942C30.311 32.905 30.837 32.8 31.326 32.611C31.734 32.4603 32.1031 32.2201 32.406 31.908C32.743 31.572 32.944 31.259 33.11 30.828C33.3 30.336 33.406 29.81 33.442 29.028C33.494 27.925 33.5 27.538 33.5 25C33.5 22.526 33.493 22.122 33.442 20.971C33.405 20.189 33.299 19.661 33.11 19.173C32.9593 18.765 32.719 18.396 32.407 18.093C32.1047 17.7798 31.7355 17.5392 31.327 17.389C30.837 17.199 30.311 17.094 29.529 17.058C28.426 17.006 28.04 17 25.5 17M25.5 15C28.217 15 28.556 15.01 29.623 15.06C30.687 15.11 31.413 15.277 32.05 15.525C32.71 15.779 33.266 16.123 33.822 16.678C34.3305 17.1779 34.724 17.7826 34.975 18.45C35.222 19.087 35.39 19.813 35.44 20.878C35.487 21.944 35.5 22.283 35.5 25C35.5 27.717 35.49 28.056 35.44 29.122C35.39 30.187 35.222 30.912 34.975 31.55C34.7246 32.2178 34.3311 32.8226 33.822 33.322C33.322 33.8303 32.7173 34.2238 32.05 34.475C31.413 34.722 30.687 34.89 29.623 34.94C28.556 34.987 28.217 35 25.5 35C22.783 35 22.444 34.99 21.377 34.94C20.313 34.89 19.588 34.722 18.95 34.475C18.2823 34.2245 17.6775 33.8309 17.178 33.322C16.6694 32.8222 16.276 32.2175 16.025 31.55C15.777 30.913 15.61 30.187 15.56 29.122C15.512 28.056 15.5 27.717 15.5 25C15.5 22.283 15.51 21.944 15.56 20.878C15.61 19.813 15.777 19.088 16.025 18.45C16.2752 17.7822 16.6688 17.1773 17.178 16.678C17.6777 16.1692 18.2824 15.7757 18.95 15.525C19.587 15.277 20.312 15.11 21.377 15.06C22.445 15.013 22.784 15 25.501 15" fill="white"/>
</svg>
