<svg width="128" height="70" viewBox="0 0 128 70" fill="none" xmlns="http://www.w3.org/2000/svg">
<g clip-path="url(#clip0_841_1974)">
<path d="M95.7339 68.6863C74.8774 60.4825 53.1247 60.4825 32.2657 68.6863C25.1152 71.663 15.8577 68.5985 12.7951 61.1698C8.86435 52.2786 4.93108 43.39 1.00038 34.4988C-3.49958 24.2614 6.17262 13.3626 14.9793 9.70896C46.9066 -3.07356 81.0955 -3.07356 113.023 9.70896C121.829 13.3626 131.499 24.2614 127.002 34.4988C123.071 43.39 119.138 52.2786 115.207 61.1698C112.01 68.3969 102.959 71.8826 95.7364 68.6863" fill="#FCEE21"/>
<path d="M28.7986 44.8111C29.3395 46.0591 30.4755 46.5655 31.7557 46.2555C32.8375 45.8162 33.381 45.6043 34.4757 45.2013C37.2937 43.9662 36.7965 39.912 36.0264 37.5762C36.0135 37.54 36.0083 37.5219 35.998 37.4832C36.423 37.3462 36.6368 37.279 37.0618 37.1498C37.8655 39.7854 38.6666 42.421 39.4702 45.0566C33.8086 46.873 28.4225 49.1572 23.1756 51.9607C22.9876 51.6196 22.8948 51.4491 22.7094 51.108C22.7454 51.0874 22.766 51.077 22.8021 51.0564C24.4146 50.1701 24.8653 48.9763 24.0977 47.457C19.9739 39.3048 15.8526 31.15 11.7287 22.9979C10.858 21.3132 8.61707 22.1788 7.42447 22.9126C7.37295 22.941 7.34977 22.9539 7.29825 22.9824C7.11022 22.6413 7.01749 22.4707 6.83203 22.1297C11.2779 19.7292 15.8113 17.5898 20.489 15.6829C20.7028 16.2255 20.811 16.4968 21.0248 17.0394C20.9733 17.0601 20.9449 17.0704 20.8934 17.0911C19.572 17.5433 17.5268 18.7189 18.2635 20.4501C21.7769 28.5687 25.2903 36.6873 28.8012 44.8059" fill="black"/>
<path d="M75.0102 42.4211C71.0615 41.9844 65.7708 40.049 65.6394 35.3205C65.7347 26.9901 65.83 18.6596 65.9253 10.3265C65.9408 8.45838 63.6457 8.15348 62.2574 8.25166C62.2007 8.25166 62.1749 8.25167 62.1183 8.25425C62.1105 7.86408 62.1054 7.67029 62.0977 7.2827C67.0303 7.22328 71.9193 7.42224 76.8313 7.88475C76.7927 8.27234 76.7721 8.46613 76.7335 8.85113C76.6794 8.84596 76.651 8.84338 76.5944 8.83563C75.2189 8.62633 72.9006 8.7426 72.7667 10.6056C72.1846 18.918 71.605 27.2278 71.0229 35.5402C70.7756 38.9044 74.0443 40.7002 76.8648 41.1472C79.4149 41.5529 83.0004 40.8087 83.6341 37.8114C85.3985 29.5042 87.1604 21.197 88.9248 12.8872C89.0974 10.9803 86.4417 10.1999 85.0328 10.001L84.8937 9.97771C84.9606 9.59529 84.9941 9.4015 85.0585 9.01908C88.7728 9.69864 92.4357 10.5126 96.0856 11.4764C95.9851 11.851 95.9336 12.0397 95.8306 12.4143C95.7765 12.3988 95.7482 12.3911 95.6941 12.3781C94.3315 11.9596 91.5882 11.5306 90.9365 13.3368C89.0279 21.613 87.1166 29.8866 85.2079 38.1628C84.0823 42.5503 78.6705 42.8267 75.0077 42.4211" fill="black"/>
<path d="M110.283 16.3313C118.899 19.9772 118.111 29.9665 114.248 36.9198C111.303 42.2193 104.495 50.772 97.3527 47.8031C94.2257 46.5112 91.0188 45.3872 87.7578 44.4854C87.8634 44.1108 87.9149 43.9221 88.018 43.55C88.0566 43.5604 88.0772 43.5681 88.1184 43.5785C89.8494 44.0668 90.993 43.5242 91.503 41.9015C94.2437 33.1835 96.9844 24.4628 99.7251 15.7448C100.279 13.9516 98.1384 12.9929 96.7783 12.6829C96.7242 12.6674 96.6959 12.6596 96.6444 12.6441C96.75 12.2694 96.8015 12.0834 96.9045 11.7087C101.451 13.0265 105.894 14.5639 110.286 16.3365M95.7789 45.6094C96.6341 45.9376 97.0591 46.1081 97.9091 46.4569C102.61 48.0486 107.223 37.2712 108.516 34.5271C110.023 31.336 115.466 20.034 109.732 17.6827C108.583 17.2073 108.006 16.9773 106.847 16.5329C103.159 26.225 99.4675 35.9172 95.7789 45.6068" fill="black"/>
<path d="M38.8238 38.8784C38.2725 38.527 37.8733 38.018 37.541 37.4831C37.3993 37.2532 37.2345 37.0594 37.049 36.894C36.521 36.4134 36.114 35.8656 35.7508 35.1835C35.64 34.9768 35.6246 34.7907 35.6169 34.5633C35.3438 34.5478 35.2485 34.2972 35.1944 34.1137C35.0579 33.659 34.8287 33.23 34.7565 32.7675C34.6793 32.2792 34.3676 31.9071 34.2182 31.4549C34.1229 31.1629 34.298 30.933 34.1796 30.6487C33.9194 30.026 34.0095 29.3387 34.0199 28.6772C34.0276 28.269 33.7803 27.9408 33.8421 27.4835C33.9323 27.4266 33.9194 27.1967 33.8601 27.039C33.3166 25.5972 33.6876 24.1012 33.5768 22.6361C33.7751 22.1219 33.7751 21.5664 33.9271 21.0341C34.0997 20.4269 34.4088 19.8507 34.4474 19.2073C34.4655 18.9205 34.6793 18.892 34.8724 18.8068C34.8853 18.6957 34.8982 18.5794 34.9034 18.5199C35.2331 18.2383 35.5164 17.9902 35.4726 17.5432C35.9002 17.3727 36.0341 16.9205 36.2891 16.6027C36.4926 16.3469 36.7476 16.1324 36.9305 15.8172V15.5924C37.3839 15.2229 37.7058 14.7656 38.0562 14.3211C38.3833 13.9051 38.8315 13.5873 39.2359 13.2178C39.2101 13.1894 39.1689 13.1403 39.1251 13.0886C39.156 13.0628 39.1844 13.0266 39.2204 13.0111C39.375 12.9491 39.6094 13.1454 39.697 12.8638C39.8154 12.8431 39.8386 12.9672 39.9262 13.0085C39.97 12.9103 40.0138 12.8121 40.0576 12.7191C40.14 12.7191 40.2121 12.7191 40.2817 12.7191C40.2688 12.7889 40.3023 12.8328 40.3692 12.8483C40.3795 12.8509 40.4156 12.8173 40.413 12.8044C40.3976 12.7372 40.3538 12.7062 40.2842 12.7165C40.328 12.4814 40.668 12.577 40.6989 12.3341C40.6629 12.2902 40.6242 12.2411 40.583 12.1946C40.6938 12.0809 40.82 12.1584 40.9385 12.13C41.0776 12.0215 41.0055 11.8638 41.0055 11.7321C41.0055 11.5589 41.1446 11.5047 41.2347 11.4065C41.4021 11.5667 41.2605 11.6571 41.1652 11.7579C41.1961 11.8432 41.3249 11.8664 41.3017 11.9853C41.2321 11.9724 41.1884 12.006 41.1729 12.0731C41.1729 12.0835 41.2038 12.1196 41.2167 12.1171C41.2837 12.1016 41.3146 12.0576 41.3043 11.9879C41.5155 11.9465 41.6031 11.7527 41.7319 11.621C41.9817 11.3677 42.2547 11.1662 42.6179 11.0628C42.5664 10.9982 42.5252 10.9491 42.4763 10.8897C42.9837 10.2592 43.7616 10.2954 44.4159 10.0732C44.591 10.1972 44.4365 10.3781 44.5472 10.4918C44.6837 10.5796 44.7584 10.484 44.8537 10.4117C44.8821 10.391 44.98 10.4711 45.0366 10.4995C45.1371 10.4246 45.0366 10.2851 45.1706 10.2463C45.2118 10.2825 45.2633 10.329 45.2736 10.3419C45.6394 10.3032 45.7862 9.83032 46.1571 9.94142C46.3168 10.0215 46.1906 10.1688 46.3245 10.2101C46.5667 10.0939 46.7856 9.85874 47.1411 9.9776C47.0793 10.0525 47.0406 10.1016 46.9994 10.1507C47.0252 10.1766 47.0586 10.2308 47.0844 10.2282C47.3832 10.1998 47.6974 10.3238 47.9756 10.0913C48.1225 9.96985 48.3028 10.1352 48.4522 10.1636C49.0807 10.2851 49.7092 10.1998 50.3377 10.2256C50.4922 10.2308 50.6133 10.2618 50.7215 10.3884C51.0589 10.1585 51.4581 10.3058 51.811 10.2153C52.1794 10.1197 52.5117 10.3058 52.8491 10.2231C53.238 10.559 53.2406 10.5176 53.7815 10.5409C54.0211 10.5512 54.3044 10.5409 54.5311 10.7114C55.1132 11.1559 55.7623 11.4659 56.4552 11.6881C56.6587 11.7527 56.7205 11.9698 56.888 12.0499C57.5731 12.3703 58.0419 12.9697 58.6524 13.3883C59.2345 13.7888 59.7574 14.272 60.2597 14.7526C60.7131 15.1867 61.3107 15.5226 61.5605 16.1557C61.8258 16.2125 61.9623 16.4167 62.1323 16.5898C62.0679 16.6544 62.0345 16.688 61.9984 16.7241C62.4852 16.9076 62.5934 17.3598 62.7789 17.7913C63.0004 17.8585 63.1884 18.0187 63.2915 18.2771C63.1953 18.3976 63.1927 18.538 63.2837 18.6982C63.2837 18.5354 63.2837 18.3985 63.2915 18.2771C63.5516 18.5484 63.7628 18.8378 63.4228 19.2615C63.5774 19.3855 63.7474 19.5173 63.8659 19.6129C63.9045 19.7964 63.8298 19.8584 63.7474 19.9333C63.7886 19.9824 63.8633 20.0289 63.8659 20.078C63.8762 20.4553 63.9509 20.7886 64.1595 21.1297C64.381 21.494 64.2677 21.9849 64.4635 22.388C64.5175 22.4966 64.4351 22.6025 64.3553 22.7059C64.2857 22.7937 64.3115 22.817 64.4532 23.1451C64.4454 23.2433 64.2986 23.2588 64.3424 23.4268C64.5047 23.7833 64.8163 24.1683 64.4789 24.6567C64.4119 24.7549 64.4686 24.9409 64.4686 25.0882C64.4686 25.4293 64.4429 25.7729 64.4763 26.1088C64.5047 26.3879 64.278 26.6618 64.4686 26.9383C64.2728 27.6411 64.2316 28.3775 63.9818 29.07C63.8272 29.4937 63.7525 29.9485 63.4615 30.3335C63.4563 31.2146 63.1704 32.0208 62.6424 32.7469C62.5908 32.8166 62.5728 32.9122 62.5367 32.9949C62.1092 34.0052 61.5116 34.9147 60.9114 35.8269C60.7105 36.1318 60.5018 36.4392 60.2649 36.7002C60.0949 36.8863 60.1876 37.217 60.0227 37.2454C59.7317 37.2919 59.7909 37.5607 59.6338 37.6847C59.4844 37.8035 59.3942 38.0128 59.3608 38.1989C58.9383 38.4831 58.5159 38.7544 58.1115 39.049C57.5113 39.4857 56.9343 39.9508 56.3316 40.3797C56.1539 40.5063 55.9684 40.6665 55.7082 40.6303C55.3811 40.5864 55.2472 41.0489 54.8969 40.9507C54.7552 41.1548 54.5414 41.0334 54.3611 41.067C54.2478 41.4262 53.7944 41.4417 53.6708 41.7646C53.3849 41.8577 53.068 41.682 52.8491 41.9455C52.6533 41.9042 52.4962 41.6639 52.2644 41.8344C52.2489 41.899 52.2309 41.9662 52.2077 42.0566C51.9579 42.1445 51.7209 42.098 51.4968 41.9429C50.9584 42.2737 50.3505 41.9274 49.7993 42.1161C49.7143 42.2013 49.6267 42.2892 49.5417 42.3744C49.1141 42.3357 48.7355 42.6147 48.2925 42.5372C48.0452 42.4933 47.785 42.4235 47.5532 42.4106C47.2467 42.3951 47.1823 42.0256 46.8732 42.0825C46.6027 42.1316 46.3786 41.9946 46.1906 41.806C46.1056 41.8318 46.0824 41.9662 45.9639 41.9403C45.9485 41.899 45.9382 41.8292 45.915 41.8241C45.8274 41.8034 45.812 41.868 45.8171 41.9403C45.5389 41.8577 45.3406 41.5605 45.0263 41.6561C44.8847 41.5398 44.98 41.4081 44.9181 41.2711C44.7919 41.2091 44.6348 41.129 44.4751 41.0463C44.4133 41.098 44.3592 41.1419 44.2716 41.2143C44.2149 41.1264 44.1531 41.0282 44.0707 40.9016C43.6483 41.0308 43.3031 40.7543 42.9064 40.7698C42.8935 40.5502 42.7261 40.6458 42.6154 40.6226C42.4685 40.4314 42.2805 40.3177 42.0332 40.3306C42.0178 40.2892 42.0075 40.2195 41.9843 40.2143C41.8967 40.1936 41.8838 40.2582 41.8864 40.3306C41.7937 40.3047 41.7679 40.3926 41.6726 40.452C41.3429 40.2014 41.0055 39.9172 40.5702 39.8061C40.4208 39.7673 40.0395 39.3565 39.9262 39.1652C39.7768 39.3487 39.6274 39.3565 39.4806 39.1652C39.4291 39.2118 39.3801 39.2557 39.3157 39.3125C39.223 39.0774 38.9216 39.0929 38.8263 38.8681C38.8959 38.881 38.9397 38.8474 38.9551 38.7802C38.9577 38.7699 38.9242 38.7337 38.9113 38.7363C38.8444 38.7518 38.8134 38.7957 38.8238 38.8655M39.4059 29.0751C39.393 29.1449 39.4265 29.1888 39.4935 29.2043C39.5038 29.2069 39.5398 29.1733 39.5373 29.1604C39.5218 29.0932 39.478 29.0622 39.4059 29.0726C39.4188 29.0028 39.3853 28.9589 39.3183 28.9434C39.308 28.9408 39.2719 28.9744 39.2745 28.9873C39.29 29.0545 39.3338 29.0855 39.4059 29.0751ZM38.968 28.9279C38.9551 28.9976 38.9886 29.0416 39.053 29.0571C39.0633 29.0596 39.0994 29.0261 39.0968 29.0131C39.0813 28.9459 39.0375 28.9149 38.9654 28.9253C38.9783 28.8555 38.9448 28.8116 38.8804 28.7961C38.8701 28.7935 38.8341 28.8271 38.8366 28.84C38.8521 28.9072 38.8959 28.9382 38.968 28.9279ZM49.7478 19.8662C49.8173 19.8791 49.8611 19.8455 49.8766 19.7809C49.8766 19.7706 49.8457 19.7344 49.8328 19.737C49.7658 19.7525 49.7349 19.7964 49.7452 19.8662C49.704 19.8817 49.6345 19.892 49.6293 19.9152C49.6087 20.0031 49.6731 20.016 49.7452 20.0109C49.7607 20.1039 49.704 20.1607 49.6293 20.153C48.8643 20.0832 48.1276 20.3364 47.36 20.3261C46.8526 20.3183 46.3323 20.5121 45.8326 20.6594C45.5775 20.7343 45.3638 20.9746 45.1113 21.016C44.7893 21.0702 44.5446 21.1994 44.3283 21.4242C43.9934 21.3235 43.9599 21.7705 43.6869 21.7757C43.5967 22.1038 43.231 21.9979 43.0301 22.1994C42.6694 22.556 42.2547 22.8816 41.7422 22.9927C41.719 23.0728 41.7679 23.1554 41.67 23.2097C41.5696 23.22 41.4537 23.233 41.3455 23.2459C41.1291 23.7213 40.6217 23.8789 40.3486 24.2588H40.0962C39.8283 24.605 39.5063 24.8427 39.2101 25.0701C38.7233 25.4448 38.2133 25.7678 37.9377 26.3517C37.899 26.4318 37.7522 26.4602 37.6543 26.5119C37.6904 26.5481 37.7239 26.5817 37.7574 26.6153C37.5719 26.7962 37.9737 27.0623 37.6698 27.2277C37.6698 27.2277 37.6827 27.2613 37.6878 27.2742C37.8424 27.393 37.796 27.6385 37.9969 27.7367C38.2803 27.8736 38.5559 28.0338 38.8289 28.194C39.1019 28.3542 39.4445 28.3982 39.6867 28.5739C40.2842 29.0028 41.0647 29.1527 41.5155 29.7986C42.0306 30.0441 42.4763 30.4033 42.976 30.6668C43.4705 30.9278 43.9908 31.1448 44.5163 31.3386C44.8769 31.4704 45.1938 31.7805 45.5595 31.7831C45.8403 31.7831 46.018 31.9097 46.1751 31.9691C46.4765 31.9949 46.7238 31.9769 46.9453 32.0415C47.7026 32.2663 48.4522 32.4988 49.2584 32.4342C49.5005 32.4135 49.7426 32.4342 49.9848 32.4316C50.1934 32.4316 50.3892 32.3515 50.5849 32.3102C51.1645 32.1887 51.6745 31.8141 52.2901 31.8477C52.491 31.6254 52.8774 31.7469 53.0217 31.5298C53.2097 31.243 53.5265 31.3128 53.7532 31.1448C53.8768 31.0518 54.0803 31.0467 54.2478 30.9381C54.4899 30.7857 54.75 30.6151 55.0257 30.5428C55.5125 30.4136 55.8911 30.0467 56.3831 29.9485C56.8828 29.8477 57.2099 29.393 57.7251 29.3129C57.8951 29.287 57.8565 29.0286 57.9878 28.9253C58.0574 28.9201 58.1166 28.9124 58.1862 28.871C58.6318 28.6126 58.9898 28.2095 59.4174 27.9692C59.93 27.6798 60.2984 27.2742 60.7234 26.9098C61.0737 26.6101 61.3132 26.2561 61.4034 25.7833C61.1175 25.7083 60.8676 25.5068 60.7723 25.2717C60.6229 24.8996 60.288 24.7781 60.0279 24.5818C59.778 24.3931 59.5153 24.1993 59.232 24.0521C58.7142 23.7833 58.2274 23.4448 57.6401 23.326C57.5886 23.2511 57.6401 23.1322 57.5396 23.0831C57.4907 23.127 57.4392 23.1735 57.3877 23.22C57.2512 22.9668 56.906 22.5172 56.7128 22.401C56.4243 22.2252 56.1358 21.9875 55.8216 21.9307C55.4172 21.8583 55.1107 21.6516 54.7681 21.4733C54.392 21.2795 54.0159 21.0987 53.7738 20.7421C53.4596 20.7834 53.2509 20.5819 53.0191 20.4604C52.9676 20.5018 52.9186 20.5431 52.8671 20.5871C52.8259 20.4889 52.7924 20.4062 52.7589 20.3209C52.6688 20.2899 52.5838 20.2796 52.5297 20.3778C52.5735 20.4294 52.6147 20.4785 52.6533 20.525C52.5992 20.6155 52.522 20.5871 52.473 20.5896C52.3133 20.5405 52.4266 20.3519 52.3133 20.3106C52.115 20.2072 52.0789 20.4915 51.9115 20.4553C51.7286 20.4036 51.6874 20.1271 51.4375 20.1556C51.3628 20.1478 51.3551 20.3158 51.2418 20.2667C51.2109 20.1762 51.1825 20.0935 51.1542 20.0109C51.0692 20.016 50.9945 19.9798 50.9172 20.091C50.8915 20.1297 50.9456 20.2486 50.8374 20.2951C50.7034 20.1297 50.4227 20.122 50.4098 19.8506C50.2578 19.9023 50.0672 19.768 50.0414 20.0083H49.7504C49.7504 19.9592 49.7504 19.9101 49.7504 19.861M47.9112 42.0075C47.4965 41.8447 47.5429 42.0153 47.597 42.1651C47.682 42.1212 47.7799 42.0747 47.9112 42.0075ZM50.0466 11.3135C49.8946 11.1972 49.7478 11.1972 49.5958 11.3135C49.7478 11.4272 49.8946 11.4272 50.0466 11.3135ZM56.5222 13.5899C56.6175 13.4581 56.6587 13.3651 56.5016 13.3031C56.4217 13.3883 56.4269 13.4684 56.5222 13.5899ZM49.3846 11.2411C49.3176 11.2876 49.3176 11.3367 49.3846 11.3858C49.4516 11.3393 49.4516 11.2902 49.3846 11.2411ZM50.4793 11.3135C50.5257 11.3807 50.5746 11.3807 50.6236 11.3135C50.5772 11.2437 50.5283 11.2437 50.4793 11.3135ZM56.0122 13.0679C55.9658 12.9982 55.9169 12.9982 55.8705 13.0679C55.9169 13.1351 55.9658 13.1351 56.0122 13.0679ZM39.697 13.2152C39.7433 13.2824 39.7923 13.2824 39.8412 13.2152C39.7948 13.148 39.7459 13.148 39.697 13.2152ZM57.9801 14.4555C58.0471 14.4064 58.0471 14.3599 57.9801 14.3108C57.9131 14.3599 57.9131 14.4064 57.9801 14.4555ZM58.418 14.8947C58.485 14.8457 58.485 14.7966 58.418 14.75C58.351 14.7991 58.351 14.8457 58.418 14.8947ZM48.2203 20.0083C48.2873 19.9618 48.2873 19.9127 48.2203 19.8636C48.1534 19.9101 48.1534 19.9592 48.2203 20.0083ZM45.4513 20.4475C45.5183 20.401 45.5183 20.3519 45.4513 20.3028C45.3844 20.3493 45.3844 20.3984 45.4513 20.4475ZM40.717 23.5895C40.7633 23.6567 40.8123 23.6567 40.8612 23.5895C40.8149 23.5224 40.7659 23.5224 40.717 23.5895ZM37.8759 25.5611C37.9428 25.5145 37.9428 25.4655 37.8759 25.4164C37.8089 25.4655 37.8089 25.512 37.8759 25.5611ZM61.4781 27.0235C61.4111 27.0726 61.4111 27.1191 61.4781 27.1682C61.545 27.1191 61.545 27.0726 61.4781 27.0235ZM37.6595 28.4111C37.7058 28.4783 37.7548 28.4783 37.8037 28.4111C37.7574 28.3439 37.7084 28.3439 37.6595 28.4111ZM57.3259 30.4575C57.2795 30.3904 57.2306 30.3904 57.1816 30.4575C57.228 30.5247 57.2769 30.5247 57.3259 30.4575ZM35.4005 31.5531C35.4675 31.504 35.4675 31.4575 35.4005 31.4084C35.3335 31.4575 35.3335 31.504 35.4005 31.5531ZM43.3392 31.7727C43.2928 31.7056 43.2439 31.7056 43.1975 31.7727C43.2439 31.8399 43.2928 31.8399 43.3392 31.7727ZM47.8546 32.9407C47.8082 32.8735 47.7593 32.8735 47.7103 32.9407C47.7567 33.0078 47.8056 33.0078 47.8546 32.9407Z" fill="black"/>
<path d="M50.9226 10.0113C50.8067 10.1224 50.7269 10.0939 50.6367 10.0526C50.7037 9.8769 50.7964 9.92083 50.9226 10.0113Z" fill="black"/>
<path d="M51.2109 10.0162C51.2573 9.94903 51.3062 9.94903 51.3552 10.0162C51.3088 10.0834 51.2599 10.0834 51.2109 10.0162Z" fill="black"/>
<path d="M41.9565 10.9646C42.0234 11.0137 42.0234 11.0602 41.9565 11.1093C41.8895 11.0602 41.8895 11.0137 41.9565 10.9646Z" fill="black"/>
<path d="M40.6479 11.8433C40.7149 11.8924 40.7149 11.9389 40.6479 11.988C40.5809 11.9389 40.5809 11.8924 40.6479 11.8433Z" fill="black"/>
<path d="M44.7991 23.6801C44.7063 23.6981 44.6729 23.6387 44.6522 23.5638C44.6883 23.1633 45.2164 23.1891 45.2911 22.8119H45.5358C45.6955 22.7679 45.6388 22.6387 45.6877 22.5741C45.8886 22.3028 46.2235 22.2227 46.5043 22.0884C46.8443 21.923 47.2409 21.8739 47.6119 21.7835C47.7381 21.7525 47.8488 21.7964 47.9132 21.9333C48.0266 21.8274 48.127 21.7292 48.2558 21.6104C48.6448 22.0005 49.2269 21.5483 49.6004 21.9514C49.7137 21.8765 49.791 21.8274 49.858 21.7835C49.9842 21.7576 50.0357 21.8532 50.1053 21.9178C50.2572 21.7421 50.4066 21.7266 50.556 21.923C50.6694 21.7473 50.8342 21.7654 51.0119 21.7964C51.1098 21.985 51.1201 22.1581 50.9063 22.2847C51.097 22.476 51.4112 22.2279 51.5606 22.4992C51.7306 22.4346 51.777 22.1659 52.0165 22.2227C52.1685 22.3752 52.0655 22.476 51.9367 22.5716C52.6476 22.9488 53.3353 23.3467 53.987 23.9953C54.1287 24.2769 54.3348 24.6774 54.5614 25.1219C54.5614 25.4087 54.5176 25.7549 54.5743 26.0857C54.631 26.4164 54.3425 26.6593 54.4326 26.9926C54.5022 27.0159 54.5846 27.0469 54.6876 27.083V27.7161C54.6439 27.7884 54.5666 27.7652 54.4661 27.7729C54.2884 28.729 53.732 29.424 52.9129 29.9434C52.408 30.2612 51.9083 30.5971 51.4524 30.9821C51.1742 31.2173 50.8213 31.2199 50.538 31.4085C50.5251 31.4188 50.4375 31.3206 50.4015 31.287C50.2134 31.2173 50.1697 31.4757 49.979 31.4162C49.9456 31.3878 49.8915 31.3439 49.8348 31.2974C49.7369 31.3258 49.688 31.4834 49.536 31.4214C49.4896 31.3775 49.4381 31.3284 49.3866 31.2819C49.3377 31.3284 49.2862 31.3723 49.2398 31.4162C49.1831 31.3645 49.129 31.318 49.093 31.287C48.9358 31.2199 48.8946 31.3981 48.7813 31.3981C48.7504 31.3129 48.7195 31.2276 48.6886 31.1475C48.5108 31.1708 48.6525 31.3723 48.5237 31.4162C47.9905 31.1708 47.411 31.3284 46.8572 31.2689C46.8752 31.1191 47.0426 31.0726 46.9834 30.9305C46.8572 30.8607 46.7129 30.933 46.5661 30.8555C46.4321 30.7858 46.2338 30.84 46.1127 30.84C44.9897 30.1553 44.4436 29.0468 43.7816 27.9461C43.828 27.6463 43.6657 27.2587 43.9259 26.9177C43.7275 26.7394 43.9362 26.5611 43.9259 26.3828C43.8744 25.4707 44.2478 24.6878 44.6548 23.9126C44.6986 23.8299 44.8223 23.8015 44.8016 23.6801C44.9021 23.6852 44.951 23.6361 44.9485 23.5328C45.018 23.5457 45.0618 23.5121 45.0773 23.4449C45.0798 23.4346 45.0464 23.3984 45.0335 23.401C44.9665 23.4165 44.9356 23.4604 44.9459 23.5302C44.8454 23.5276 44.7965 23.5741 44.7991 23.6775M46.1102 29.8168C46.0973 29.8866 46.1308 29.9305 46.1952 29.946C46.2055 29.9486 46.2415 29.915 46.239 29.9021C46.2235 29.8349 46.1797 29.8039 46.1102 29.8142V29.4628C45.9762 29.3284 45.8758 29.1502 45.6748 29.083C45.6903 28.4628 45.0283 28.269 44.8635 27.7703C44.7604 27.7678 44.66 27.76 44.6522 27.9693C44.9047 28.3052 45.3838 28.5584 45.4121 29.083H45.6748C45.6723 29.4163 45.9453 29.5842 46.1127 29.8142M48.2996 25.2175C47.7999 24.4216 47.4522 24.1141 46.4038 24.7808C46.378 24.8919 46.4553 25.0211 46.3394 25.1296C46.2905 25.0883 46.2415 25.0469 46.1926 25.0056C45.868 25.5482 45.9427 26.065 46.3188 26.5533C46.5918 26.9022 47.0581 26.6128 47.326 26.8195C47.7819 26.8066 47.8926 26.3182 48.2635 26.251C48.3872 25.9952 48.5366 25.7472 48.4001 25.4603C48.3151 25.4319 48.2326 25.4035 48.1348 25.3699C48.1837 25.3234 48.2198 25.2898 48.297 25.2175M54.4867 27.1838C54.4198 27.2303 54.4198 27.2794 54.4867 27.3285C54.5537 27.282 54.5537 27.2329 54.4867 27.1838ZM47.5655 30.3258C47.5191 30.2586 47.4702 30.2586 47.4213 30.3258C47.4676 30.393 47.5166 30.393 47.5655 30.3258Z" fill="black"/>
<path d="M51.5714 22.2173C51.525 22.2173 51.4632 22.2354 51.4323 22.2147C51.3499 22.1527 51.2803 22.0726 51.1953 21.9899C51.3627 21.9021 51.4915 21.8969 51.6177 21.9744C51.6615 22.0674 51.6512 22.1501 51.5688 22.2173" fill="black"/>
<path d="M50.0419 20.0262C50.1115 20.0132 50.1553 20.0468 50.1707 20.114C50.1733 20.1244 50.1398 20.1605 50.1269 20.1579C50.06 20.1424 50.029 20.0985 50.0419 20.0287" fill="black"/>
<path d="M43.9216 25.3595C43.8752 25.4266 43.8263 25.4266 43.7773 25.3595C43.8237 25.2923 43.8727 25.2923 43.9216 25.3595Z" fill="black"/>
<path d="M47.4177 24.9229C47.3713 24.9901 47.3224 24.9901 47.2734 24.9229C47.3198 24.8558 47.3687 24.8558 47.4177 24.9229Z" fill="black"/>
<path d="M47.1289 25.6515C47.1753 25.5843 47.2242 25.5843 47.2732 25.6515C47.2268 25.7186 47.1778 25.7186 47.1289 25.6515Z" fill="black"/>
<path d="M47.9997 25.6515C47.9533 25.7186 47.9044 25.7186 47.8555 25.6515C47.9018 25.5843 47.9508 25.5843 47.9997 25.6515Z" fill="black"/>
<path d="M32.0715 58.0688C32.0432 58.0016 32.0277 57.9655 31.9994 57.8983C33.447 57.2781 34.1785 56.9862 35.6467 56.4384C35.6725 56.5081 35.6854 56.5417 35.7111 56.6115C35.6545 56.6322 35.6261 56.6425 35.572 56.6632C34.7967 56.9526 34.8096 57.2084 35.0414 57.813C35.4613 58.9008 35.6699 59.446 36.0898 60.5339C36.0614 60.5442 36.046 60.5494 36.0177 60.5623C35.8451 60.2987 35.366 59.9189 34.8585 60.123C34.0497 60.4486 34.024 61.5571 32.2389 62.3477C26.2991 64.9704 23.1102 57.3272 29.099 54.6477C30.4513 54.0431 31.1777 54.4875 31.6594 54.2886C32.1282 54.0948 31.9762 53.7253 31.971 53.516C32.0457 53.485 32.0844 53.4695 32.1617 53.4385C32.7979 54.5005 33.1121 55.0353 33.7355 56.1051C33.6608 56.1335 33.6247 56.149 33.55 56.1774C32.7077 55.0327 31.0798 54.0276 29.3025 54.8054C24.9416 56.7149 28.1588 63.7844 32.3265 62.0583C33.3568 61.632 34.4644 60.5287 34.0549 59.521C33.872 59.0688 33.7793 58.844 33.5938 58.3918C33.3027 57.6761 33.0761 57.6373 32.0689 58.0688H32.0715Z" fill="black"/>
<path d="M32.3716 62.6451C30.0456 63.7665 26.9933 63.335 25.7002 60.9656C25.1413 59.9398 25.082 58.6969 25.5637 57.5342C26.1046 56.2267 27.2895 55.0975 28.9664 54.3482C29.9143 53.9245 30.6097 53.9658 31.0682 53.9942C31.264 54.0071 31.4495 54.0201 31.5345 53.9839C31.6246 53.9477 31.6401 53.94 31.6092 53.7074C31.6014 53.6532 31.5963 53.6041 31.5937 53.5601C31.5911 53.4619 31.5885 53.4129 31.586 53.3172C31.8899 53.1932 32.0445 53.1312 32.3484 53.0098C33.116 54.3017 33.4947 54.9503 34.2416 56.2525C33.9016 56.3843 33.7316 56.4515 33.3942 56.5885C33.3324 56.5058 33.3015 56.4618 33.2396 56.3792C32.4824 55.3611 31.0116 54.3999 29.43 55.1027C28.4667 55.5316 27.8253 56.2577 27.5883 57.1776C27.3719 58.0199 27.4981 58.963 27.9257 59.8364C28.6804 61.3764 30.3238 62.596 32.1913 61.7614C33.0104 61.3945 34.0691 60.4927 33.7239 59.6581C33.5384 59.2059 33.4457 58.9811 33.2603 58.529C33.0465 58.0122 33.0465 58.007 32.1964 58.3688C32.0625 58.4256 31.9955 58.454 31.8616 58.5135C31.7302 58.206 31.6632 58.0509 31.5293 57.7435C33.25 56.9993 34.1206 56.6505 35.8721 56.0071C35.988 56.3223 36.0447 56.4799 36.1606 56.7926C35.97 56.8623 35.8721 56.8985 35.6815 56.9709C35.1741 57.1621 35.1792 57.1724 35.3724 57.6866C35.8335 58.8985 36.0627 59.5057 36.5238 60.7175C36.2611 60.8183 36.1297 60.87 35.8644 60.9733C35.8052 60.8829 35.7768 60.839 35.7176 60.7485C35.6171 60.5961 35.2874 60.3015 34.9732 60.4281C34.7465 60.5211 34.5894 60.7227 34.3756 61.0043C34.015 61.4772 33.5307 62.1232 32.3664 62.6477M27.1401 56.3662C26.746 56.7771 26.4472 57.2267 26.2489 57.7021C25.8393 58.6866 25.8857 59.7253 26.3493 60.6245C26.9753 61.8338 28.3404 62.733 30.1229 62.5908C28.902 62.2859 27.851 61.3402 27.2637 60.1671C26.7666 59.1775 26.6172 58.0897 26.8671 57.1052C26.9315 56.8468 27.0242 56.5988 27.1401 56.3662ZM34.7336 59.8235C34.9706 59.7279 35.1998 59.7201 35.4085 59.7641C35.1251 59.038 34.9835 58.6737 34.7001 57.9476C34.5997 57.6866 34.5198 57.4386 34.5456 57.2086C34.1309 57.3714 33.9222 57.4541 33.5075 57.622C33.6672 57.7486 33.8012 57.9528 33.9248 58.2577C34.1077 58.7098 34.1979 58.9372 34.3807 59.3894C34.4554 59.5754 34.4889 59.7641 34.4863 59.9501C34.561 59.901 34.6435 59.8597 34.7336 59.8235ZM31.9981 54.4748C32.1655 54.5446 32.3278 54.6273 32.4824 54.7203C32.3742 54.542 32.3227 54.4516 32.2145 54.2733C32.1604 54.3456 32.0908 54.4128 32.0007 54.4774" fill="black"/>
<path d="M46.7461 56.5444C46.7745 56.5444 46.7873 56.5444 46.8157 56.547C46.7384 56.8932 46.4705 57.4436 45.945 57.5702C45.1234 57.7717 44.5876 57.3428 44.3996 56.795C44.312 56.5418 44.057 55.4411 43.972 55.1103C43.8355 54.5832 43.3538 54.498 42.8772 54.5496C42.7175 54.6142 42.5475 54.6711 42.3672 54.7227C41.7104 54.9062 41.0149 54.9476 40.7161 54.9708C41.0072 55.9424 41.154 56.4307 41.4451 57.4023C41.7001 58.2498 41.8598 58.5159 42.97 58.2007C43.0009 58.1929 43.0138 58.1877 43.0447 58.18C43.0524 58.2033 43.055 58.2162 43.0627 58.2394C41.494 58.6864 40.7136 58.9293 39.1629 59.4564C39.1552 59.4332 39.15 59.4203 39.1423 59.397C39.1681 59.3893 39.1784 59.3841 39.2041 59.3763C40.3014 59.0043 40.2808 58.6942 40.0104 57.8493C39.3329 55.7331 38.9929 54.6762 38.3155 52.56C38.045 51.7177 37.7874 51.467 36.6618 51.8495C36.6335 51.8598 36.6206 51.8624 36.5948 51.8727C36.5871 51.8495 36.5819 51.8365 36.5742 51.8133C38.4288 51.1802 39.3638 50.8908 41.2416 50.3663C44.2244 49.5007 46.5426 52.4877 43.3847 54.3042C44.1858 54.0949 45.1775 54.0199 45.5123 55.2266C45.6617 55.7641 45.7338 56.0328 45.8832 56.5677C45.976 56.9036 46.1898 57.0328 46.4242 56.9785C46.5864 56.9397 46.692 56.7795 46.7461 56.5341M40.6981 54.8959C40.9067 54.8778 41.6074 54.808 42.0865 54.6711C42.9648 54.423 43.8303 53.7822 43.5444 52.6763C43.4285 52.2215 43.3692 51.9942 43.2533 51.542C42.9082 50.2991 41.8598 50.2526 40.8578 50.5368C40.3169 50.6919 40.0464 50.7694 39.5081 50.9322C39.9846 52.5161 40.2216 53.3094 40.6981 54.8933" fill="black"/>
<path d="M46.0237 57.8881C44.996 58.1387 44.3056 57.5832 44.0712 56.9062C44.012 56.7356 43.8987 56.2783 43.7544 55.6969C43.7029 55.4876 43.6565 55.3067 43.6308 55.2008C43.5793 55.0044 43.4608 54.8261 42.9559 54.8727C42.366 55.1026 41.6706 55.2137 41.1812 55.2628C41.4233 56.0793 41.5418 56.4876 41.7839 57.3041C42.0054 58.0586 42.0286 58.1335 42.8838 57.8881C43.0461 57.8415 43.1285 57.8183 43.2908 57.7744C43.368 58.0483 43.4041 58.1878 43.4814 58.4617C41.6525 58.9733 40.7433 59.2549 38.9428 59.8777C38.85 59.6063 38.8037 59.472 38.711 59.2033C38.8681 59.149 38.9454 59.1232 39.1025 59.0689C39.9473 58.7821 39.9242 58.7071 39.6795 57.9604C38.9917 55.8468 38.6491 54.7926 37.9614 52.6789C37.7347 51.9839 37.6626 51.8573 36.7688 52.1622C36.5988 52.219 36.5138 52.25 36.3412 52.3094C36.2485 52.0381 36.2021 51.9038 36.1094 51.635C38.1134 50.9426 39.1231 50.6273 41.1554 50.0589C43.5303 49.3948 44.8079 50.2423 45.1943 51.1958C45.5137 51.9839 45.3179 53.0381 44.4962 53.883C45.1994 53.9709 45.6528 54.3972 45.8537 55.1388C46.0005 55.6762 46.0726 55.945 46.2195 56.4824C46.2246 56.5031 46.2736 56.6762 46.3457 56.6685C46.3405 56.6659 46.3792 56.6168 46.4075 56.485C46.4307 56.3713 46.4436 56.3145 46.4693 56.2008C46.7784 56.2137 46.9304 56.2214 47.2395 56.237C47.206 56.3842 47.188 56.4592 47.1545 56.6039C47.0412 57.0974 46.6805 57.7253 46.0237 57.8829M44.0403 54.5212C44.2026 54.6789 44.2825 54.8701 44.3185 55.0199C44.3468 55.1259 44.3906 55.3119 44.4396 55.5264C44.54 55.9476 44.6791 56.5264 44.7306 56.684C44.7925 56.8674 45.0552 57.4488 45.8666 57.2498C45.8949 57.2421 45.9207 57.2343 45.9464 57.224C45.7738 57.1258 45.6244 56.9449 45.5472 56.6633C45.3978 56.1258 45.3205 55.8597 45.1711 55.3223C45.0011 54.7254 44.6688 54.4721 44.0377 54.5212M40.5011 58.671C40.903 58.5418 41.1065 58.4798 41.5109 58.3557C41.328 58.1516 41.2198 57.8545 41.1142 57.5031C40.3569 55.0225 39.9808 53.7823 39.2235 51.3017C38.8294 51.4232 38.6337 51.4852 38.2396 51.6092C38.4328 51.7978 38.5616 52.082 38.6775 52.4464C39.3472 54.5652 39.6795 55.6246 40.3492 57.7408C40.4599 58.0896 40.5372 58.3971 40.5037 58.6684M40.9699 54.5419C41.3151 54.5032 41.7169 54.4411 41.9977 54.361C42.348 54.2603 43.4762 53.8649 43.1903 52.772C43.0718 52.3198 43.0126 52.0924 42.8941 51.6376C42.6545 50.7927 42.0518 50.5395 40.9468 50.8547C40.5527 50.9658 40.3569 51.0227 39.9654 51.1389C40.3672 52.4981 40.5681 53.1802 40.9699 54.5393M43.0667 50.5059C43.3191 50.7333 43.502 51.0485 43.6102 51.4464C43.7261 51.9038 43.7827 52.1311 43.8987 52.5885C43.9862 52.9373 43.9785 53.2474 43.8987 53.5213C44.5787 52.8624 44.7461 52.0459 44.4988 51.449C44.3159 51.0072 43.8574 50.6118 43.0641 50.5085" fill="black"/>
<path d="M57.3595 51.5291C57.5553 53.7668 55.8733 55.8158 53.5447 56.1466C51.2162 56.4773 49.0371 54.9786 48.6043 52.7746C48.1716 50.5705 49.8098 48.2889 52.3805 47.9246C54.9537 47.5577 57.1612 49.2941 57.357 51.5291M55.7342 50.9943C55.5668 49.4362 54.5442 47.8549 52.4011 48.1623C50.258 48.4672 49.7738 50.2605 50.0442 51.803C50.1395 52.3457 50.1885 52.6196 50.2838 53.1622C50.5542 54.6944 51.5536 56.2215 53.5035 55.9424C55.4509 55.666 56.0459 53.9141 55.881 52.3663C55.8218 51.816 55.7934 51.5421 55.7342 50.9943Z" fill="black"/>
<path d="M53.5902 56.4696C51.1226 56.821 48.7064 55.2474 48.2505 52.8444C47.7534 50.2321 49.8063 47.9609 52.3358 47.5991C54.8652 47.2374 57.4694 48.8471 57.7167 51.4956C57.9433 53.9296 56.063 56.1156 53.5902 56.467M52.4491 48.4802C50.0922 48.8161 50.288 51.0667 50.4039 51.7359C50.4966 52.2811 50.5456 52.5524 50.6383 53.0976C50.7207 53.5808 51.2436 55.9322 53.4588 55.6169C55.2233 55.3663 55.6766 53.7462 55.5272 52.4026C55.4654 51.8548 55.437 51.5783 55.3752 51.0305C55.2207 49.6378 54.3681 48.2089 52.4465 48.4802M49.9248 49.5086C49.1108 50.3639 48.7296 51.5292 48.9537 52.7023C49.1752 53.865 49.9325 54.7978 50.9062 55.3405C50.3884 54.7565 50.0665 53.9762 49.9299 53.2217C49.8321 52.6765 49.7831 52.4052 49.6852 51.8625C49.5487 51.1003 49.5848 50.2424 49.9248 49.5086ZM55.1846 48.7644C55.7152 49.3536 56.0115 50.1468 56.0939 50.953C56.1506 51.5034 56.1789 51.7773 56.2356 52.3276C56.318 53.1261 56.1995 53.9477 55.8595 54.6325C56.6425 53.8392 57.1062 52.7359 56.998 51.5602C56.8872 50.3716 56.2021 49.3587 55.1846 48.7644Z" fill="black"/>
<path d="M66.215 47.1805C67.5286 47.2037 68.1855 47.227 69.4966 47.3019C69.4914 47.3949 69.4888 47.4414 69.4837 47.5319C68.425 47.4724 67.9742 47.953 67.9279 49.1365C67.8686 50.6791 67.8403 51.4516 67.7811 52.9942C67.1732 56.3016 61.7382 56.0174 61.0247 52.9348C60.9448 51.1648 60.9062 50.2811 60.8289 48.5137C60.7903 47.6275 60.2288 47.5112 59.4586 47.5577C59.4251 47.5577 59.4071 47.5603 59.3762 47.5629C59.371 47.4699 59.3684 47.4234 59.3633 47.3329C61.1406 47.2244 62.0318 47.1934 63.8117 47.1753C63.8117 47.2683 63.8117 47.3148 63.8117 47.4053C63.7834 47.4053 63.7679 47.4053 63.7422 47.4053C62.9746 47.413 62.4079 47.5706 62.4311 48.4569C62.48 50.3302 62.5032 51.2656 62.5521 53.1389C62.6165 55.5936 67.423 55.635 67.5157 52.9451C67.5698 51.418 67.5956 50.6558 67.6471 49.1287C67.6883 47.9453 67.3226 47.4363 66.2124 47.4156C66.2124 47.3226 66.215 47.2761 66.2175 47.183" fill="black"/>
<path d="M64.5956 55.6661C62.7616 55.6661 60.7628 54.7747 60.6752 52.9479C60.5876 51.1779 60.5464 50.2942 60.4588 48.5268C60.4305 47.93 60.1884 47.8369 59.4774 47.8809C59.2946 47.8912 59.2044 47.8964 59.0215 47.9093C58.9983 47.5553 58.988 47.3796 58.9648 47.0282C61.0513 46.8912 62.0945 46.8551 64.1835 46.8447C64.1835 47.1987 64.186 47.3744 64.1886 47.7284C64.0109 47.7284 63.9207 47.7284 63.743 47.731C62.9806 47.7388 62.7874 47.8912 62.7977 48.4467C62.8389 50.3201 62.8569 51.2554 62.8981 53.1288C62.9213 54.1571 63.9774 54.6042 64.9485 54.6067C65.5177 54.6067 66.069 54.4569 66.4656 54.1882C66.9061 53.8884 67.1405 53.4672 67.1585 52.9324C67.2049 51.4053 67.2281 50.6431 67.2744 49.116C67.3105 47.9687 66.9576 47.7543 66.2029 47.7413C66.0535 47.7388 65.9788 47.7362 65.8294 47.7362C65.8346 47.3822 65.8371 47.2065 65.8423 46.8525C67.4625 46.8731 68.2713 46.9042 69.8915 46.9998C69.8709 47.3538 69.8606 47.5295 69.84 47.8809C69.6906 47.8705 69.6159 47.8679 69.4665 47.8602C68.7452 47.8189 68.346 48.0204 68.297 49.1521C68.2326 50.6947 68.1992 51.4647 68.1322 53.0073C68.0961 53.8781 67.6763 54.5809 66.9396 55.0538C66.3162 55.4543 65.4894 55.6687 64.593 55.6687M60.8503 47.5786C61.0435 47.7698 61.1775 48.0617 61.1955 48.4958C61.2676 50.2658 61.3011 51.1495 61.3732 52.9195C61.4119 53.9065 62.2439 54.5396 63.2536 54.8315C62.6534 54.4827 62.2181 53.9246 62.1949 53.1468C62.1383 51.2735 62.1099 50.3381 62.0533 48.4648C62.0404 48.0307 62.1589 47.731 62.3443 47.5243C61.7467 47.5398 61.4479 47.5501 60.8478 47.576M67.5578 47.5398C67.6737 47.6561 67.7638 47.7853 67.8282 47.9274C67.9055 47.793 68.006 47.6664 68.1322 47.5605C67.9029 47.5501 67.787 47.5475 67.5578 47.5398Z" fill="black"/>
<path d="M82.2195 49.1313C81.099 48.9013 80.7976 49.2812 80.5503 50.5964C80.0944 53.0071 79.8677 54.2112 79.4144 56.622C78.8322 56.5109 78.5412 56.4592 77.959 56.361C76.6042 53.803 75.2003 51.3586 73.678 48.8962C73.4797 50.7902 73.3792 51.7385 73.1809 53.6324C73.0418 54.9657 73.1912 55.5135 74.2215 55.6376C74.2679 55.6427 74.2911 55.6453 74.34 55.6505C74.3323 55.7202 74.3271 55.7538 74.3194 55.8236C73.1526 55.6789 72.5679 55.6195 71.3984 55.5187C71.4036 55.4489 71.4087 55.4153 71.4139 55.3456C71.4577 55.3482 71.4783 55.3507 71.5221 55.3559C72.555 55.4463 72.8357 54.9425 72.9723 53.6092C73.1654 51.7152 73.2633 50.7669 73.4565 48.8729C73.5467 47.9918 73.2144 47.643 72.3824 47.5681L72.3 47.5603C72.3 47.5345 72.3025 47.5241 72.3051 47.4983C73.3226 47.5887 73.83 47.6404 74.8449 47.7593C76.4883 50.4078 77.9874 53.1415 79.332 55.9528C79.7312 53.7927 79.9321 52.7126 80.3314 50.5499C80.5761 49.2321 80.4086 48.7644 79.283 48.5732C79.2367 48.5654 79.2135 48.5603 79.1645 48.5525C79.1774 48.4828 79.1826 48.4492 79.1929 48.3794C80.4705 48.5964 81.1093 48.7153 82.3792 48.9789C82.3663 49.0486 82.3585 49.0822 82.3431 49.1494C82.2916 49.1391 82.2658 49.1339 82.2143 49.1236" fill="black"/>
<path d="M79.4761 57.0536C79.4581 57.0149 79.4504 56.9968 79.4323 56.958C78.7523 56.8288 78.4123 56.7668 77.7297 56.6531C76.586 54.3715 75.3033 52.1132 73.9355 49.9582C73.7733 51.444 73.6934 52.1856 73.5311 53.6713C73.3766 55.0769 73.611 55.2346 74.2627 55.3147C74.4455 55.3379 74.5383 55.3482 74.7237 55.3715C74.6825 55.6997 74.6619 55.865 74.6207 56.1932C73.1885 56.0123 72.4725 55.9374 71.0352 55.8211C71.0609 55.4904 71.0738 55.325 71.1021 54.9968C71.2824 55.0123 71.3726 55.0201 71.5529 55.0356C72.2097 55.0924 72.4905 54.9813 72.627 53.5783C72.8125 51.6817 72.9052 50.736 73.0907 48.8394C73.1628 48.0953 72.9335 47.948 72.3591 47.8963C72.1762 47.8808 72.0861 47.873 71.9032 47.8575C71.9264 47.5733 71.9393 47.4312 71.9625 47.147C73.2117 47.2503 73.8376 47.3149 75.0843 47.4648C76.5397 49.9066 77.8868 52.3354 79.185 54.8651C79.5019 53.1158 79.659 52.2424 79.9758 50.4931C80.2179 49.1495 79.9758 49.0306 79.2366 48.904C79.0408 48.8704 78.9455 48.8549 78.7497 48.8213C78.8038 48.4958 78.8296 48.333 78.8837 48.0048C80.4652 48.2658 81.256 48.4131 82.8273 48.7464C82.7603 49.0694 82.7242 49.2322 82.6572 49.5552C82.4589 49.5138 82.361 49.4931 82.1627 49.4518C81.426 49.2994 81.1813 49.3226 80.9212 50.6688C80.4317 53.2036 80.187 54.4723 79.6976 57.0097C79.6204 56.9942 79.5791 56.9864 79.5019 56.9709C79.4967 57.0045 79.4916 57.0226 79.4864 57.0562M78.1985 56.0717C78.5591 56.1337 78.7369 56.1648 79.0975 56.2319C77.7555 53.431 76.2589 50.705 74.6207 48.0668C74.2627 48.0255 74.0849 48.0048 73.7243 47.9686C73.7939 48.1185 73.8351 48.2942 73.848 48.4932C75.396 50.9918 76.823 53.4749 78.1985 56.0717ZM72.779 55.3276C72.882 55.3379 72.931 55.3431 73.034 55.3534C72.9928 55.2862 72.9567 55.2165 72.9284 55.1415C72.8846 55.2087 72.8357 55.2707 72.779 55.325M80.6404 48.9738C80.6687 49.0229 80.6945 49.0771 80.7151 49.1288C80.7537 49.0849 80.7924 49.0461 80.8387 49.01C80.7589 48.9945 80.7202 48.9867 80.6404 48.9738Z" fill="black"/>
<path d="M87.7367 58.6738C85.895 58.1131 84.9651 57.8599 83.0977 57.4129C83.1131 57.3457 83.1234 57.3095 83.1389 57.2423C83.6515 57.3663 84.4474 57.356 84.6638 56.5059C85.2021 54.3975 85.47 53.3432 86.0109 51.2348C86.2299 50.3769 85.5498 49.8834 85.0089 49.7542C84.9754 49.7465 84.96 49.7413 84.9265 49.7335C84.9419 49.6663 84.9497 49.6302 84.9677 49.563C86.9434 50.0358 87.9273 50.302 89.8798 50.8937C95.4667 52.7567 93.4756 60.3662 87.7341 58.6738M89.6222 50.9996C88.9525 50.8007 88.6176 50.7025 87.9453 50.5164C87.2628 52.9892 86.5802 55.462 85.8976 57.9348C86.5905 58.1286 86.9356 58.2294 87.626 58.4412C91.7189 59.2293 93.9213 52.227 89.6222 50.9996Z" fill="black"/>
<path d="M87.6421 58.9863C85.6742 58.3869 84.6851 58.1182 82.6914 57.6505C82.7661 57.3275 82.8047 57.1673 82.8794 56.8443C83.0134 56.8753 83.0804 56.8908 83.2169 56.9244C83.6393 57.0252 84.1751 57.0252 84.3271 56.418C84.8551 54.3069 85.1204 53.2527 85.651 51.1417C85.8571 50.3226 85.0302 50.0926 84.9349 50.0693C84.7572 50.0254 84.6671 50.0047 84.4868 49.9634C84.5615 49.6404 84.6001 49.4802 84.6748 49.1572C86.8076 49.6585 87.8688 49.9427 89.9758 50.5809C92.5336 51.2579 94.5608 53.7307 93.5923 56.3999C93.2085 57.4593 92.4177 58.3016 91.4209 58.7926C90.2978 59.3429 89.0099 59.4024 87.6421 58.9838M84.4327 57.405C84.9015 57.5239 85.1333 57.5885 85.5995 57.7151L87.5417 50.5603C87.0111 50.4156 86.7457 50.3458 86.2151 50.2089C86.4083 50.5189 86.483 50.8988 86.3723 51.3277C85.8236 53.4336 85.5506 54.4852 85.0045 56.5937C84.9015 56.989 84.6928 57.2474 84.4352 57.4076M86.3233 57.7125C86.8848 57.8727 87.1656 57.9554 87.7246 58.1259H87.7297C88.7214 58.4308 89.5225 57.9993 90.0273 57.5807C91.2122 56.5988 91.9077 54.7126 91.5136 53.2553C91.3333 52.5886 90.8361 51.6972 89.5354 51.307C89.0125 51.1494 88.7523 51.0745 88.2294 50.9272C87.467 53.6403 87.0858 54.9968 86.3233 57.7099M91.9077 52.3535C92.0468 52.6016 92.155 52.8703 92.2322 53.1545C92.683 54.8573 91.8819 56.958 90.5039 58.0872C90.2566 58.2913 89.9964 58.4541 89.7311 58.5807C90.2076 58.5368 90.6584 58.4127 91.0783 58.206C91.9257 57.7874 92.5825 57.0639 92.9123 56.1518C93.3373 54.9684 93.1338 53.4775 91.9077 52.3561" fill="black"/>
<path d="M98.4903 62.9138C97.3131 62.3557 96.476 61.3841 95.9454 61.1568C95.6903 61.0482 95.425 61.0482 95.1829 61.348C95.1597 61.3376 95.1469 61.3325 95.1211 61.3221C95.4894 59.932 95.6697 59.2343 96.0201 57.8365C96.0458 57.8468 96.0587 57.852 96.0844 57.8623C95.7316 59.5935 96.9422 61.9474 98.4001 62.6348C100.389 63.5701 101.823 62.0301 100.108 60.348C99.4124 59.6659 99.0569 59.3299 98.3357 58.6633C95.5358 56.0897 98.7015 53.8573 101.512 55.2267C102.635 55.7745 102.903 56.3791 103.639 56.7486C103.977 56.9192 104.211 56.8572 104.373 56.6014C104.404 56.6169 104.42 56.6246 104.448 56.6401C104.08 57.7796 103.892 58.3481 103.511 59.4824C103.485 59.4695 103.472 59.4643 103.449 59.4514C103.748 58.3067 103.158 56.2474 101.445 55.4489C100.453 54.9864 99.4304 54.8521 98.9951 55.8546C98.5057 56.9786 100.09 58.2628 100.42 58.5729C100.899 59.0225 101.133 59.2498 101.602 59.7046C104.397 62.273 100.901 64.0585 98.4903 62.9138Z" fill="black"/>
<path d="M98.3532 63.2085C97.6037 62.8519 97.0035 62.3558 96.5167 61.9579C96.2436 61.7357 95.9835 61.529 95.8186 61.4566C95.7001 61.4049 95.6023 61.3817 95.4606 61.56C95.3988 61.6375 95.3653 61.6762 95.3035 61.7538C95.0691 61.6556 94.9531 61.6065 94.7188 61.5083C95.1489 59.8598 95.3576 59.0355 95.7645 57.3818C96.0582 57.5007 96.205 57.5601 96.4961 57.6815C96.4729 57.7901 96.4626 57.8443 96.4394 57.9528C96.1226 59.4851 97.1993 61.7124 98.5413 62.3429C99.4299 62.7615 100.094 62.6039 100.365 62.2524C100.682 61.839 100.499 61.1905 99.8652 60.5703C99.1698 59.8908 98.8169 59.5549 98.0982 58.8934C96.8515 57.7436 96.4445 56.3663 97.1374 55.3483C97.717 54.493 99.2728 53.8264 101.653 54.9349C102.351 55.2604 102.755 55.6273 103.077 55.9219C103.325 56.1467 103.518 56.325 103.788 56.4619C103.938 56.5369 103.969 56.5291 104.043 56.4077C104.108 56.3043 104.139 56.2526 104.203 56.1519C104.484 56.294 104.623 56.3663 104.904 56.5084C104.448 57.8986 104.216 58.5911 103.744 59.9709C103.459 59.821 103.317 59.7461 103.031 59.6014C103.059 59.498 103.072 59.4438 103.098 59.3404C103.353 58.3482 102.861 56.4697 101.31 55.7462C99.9451 55.1106 99.5381 55.5576 99.3423 56.0072C98.974 56.8418 100.19 57.9141 100.581 58.2732C101.096 58.7539 101.351 58.9993 101.854 59.4903C103.049 60.6582 103.296 62.0251 102.557 62.9423C101.931 63.7201 100.476 64.2162 98.3558 63.2111M99.1672 55.0408C98.4794 55.0976 98.0158 55.3948 97.7737 55.741C97.2611 56.4826 97.5959 57.5317 98.5825 58.4412C99.3063 59.1078 99.6617 59.4463 100.36 60.1311C101.439 61.1879 101.336 62.1646 100.942 62.671C100.8 62.8493 100.604 63.0018 100.36 63.1051C101.145 63.1465 101.697 62.87 101.983 62.5108C102.508 61.8468 102.279 60.8235 101.357 59.9244C100.859 59.4412 100.61 59.2009 100.1 58.7254C99.6154 58.2836 98.1085 56.9684 98.652 55.7049C98.7448 55.4852 98.9045 55.2294 99.1672 55.0408ZM95.8856 59.821C95.7851 60.1982 95.7362 60.3869 95.6357 60.7641C95.8753 60.7641 96.1277 60.8571 96.4059 61.0458C96.1895 60.6582 96.0118 60.2422 95.8856 59.8184M103.464 57.0278C103.567 57.2397 103.652 57.4567 103.716 57.6712C103.78 57.4722 103.814 57.3741 103.876 57.1725C103.744 57.1518 103.605 57.1002 103.464 57.0278Z" fill="black"/>
</g>
<defs>
<clipPath id="clip0_841_1974">
<rect width="128" height="70" fill="white"/>
</clipPath>
</defs>
</svg>
