<svg width="41" height="40" viewBox="0 0 41 40" fill="none" xmlns="http://www.w3.org/2000/svg">
<g clip-path="url(#clip0_936_185)">
<path d="M0.950684 15.0757H4.11325C4.60305 19.4855 7.17198 23.2766 10.8153 25.4441L8.84944 30.1565C8.78076 30.1535 8.71176 30.1513 8.64231 30.1513C6.09761 30.1513 4.02733 32.2215 4.02733 34.7662C4.02733 37.3109 6.09761 39.3812 8.64231 39.3812C10.6477 39.3812 12.3576 38.095 12.9927 36.3046H24.9519L26.0018 39.3812H31.7172V36.3046H28.2027L24.5677 25.652C28.4019 23.5245 31.1255 19.63 31.6313 15.0757H34.7938V11.999H0.950684V15.0757ZM8.64231 36.3046C7.79408 36.3046 7.10398 35.6145 7.10398 34.7662C7.10398 33.918 7.79408 33.2279 8.64231 33.2279C9.49054 33.2279 10.1806 33.918 10.1806 34.7662C10.1806 35.6145 9.49054 36.3046 8.64231 36.3046ZM23.902 33.2279H12.9927C12.7289 32.484 12.2795 31.8276 11.7003 31.3139L13.6196 26.7132C14.9601 27.1469 16.3892 27.3823 17.8723 27.3823C19.2074 27.3823 20.4988 27.1917 21.7213 26.8373L23.902 33.2279ZM17.8723 24.3056C12.4569 24.3056 7.96314 20.2871 7.21436 15.0757H28.5302C27.7814 20.2871 23.2876 24.3056 17.8723 24.3056Z" fill="#FBEF39"/>
<path d="M35.7168 0C33.7114 0 32.0016 1.28619 31.3665 3.07665H25.5639V0H22.4872V3.07665H19.4106V0H16.3339V3.07665H13.2573V0H10.1806V3.07665H4.02734V6.1533H10.1806V9.22995H13.2573V6.1533H16.3339V9.22995H19.4106V6.1533H22.4872V9.22995H25.5639V6.1533H31.3665C32.0015 7.94376 33.7114 9.22995 35.7168 9.22995C38.2615 9.22995 40.3318 7.15967 40.3318 4.61498C40.3318 2.07028 38.2615 0 35.7168 0ZM35.7168 6.1533C34.8686 6.1533 34.1785 5.46321 34.1785 4.61498C34.1785 3.76674 34.8686 3.07665 35.7168 3.07665C36.5651 3.07665 37.2552 3.76674 37.2552 4.61498C37.2552 5.46321 36.5651 6.1533 35.7168 6.1533Z" fill="#FBEF39"/>
</g>
<defs>
<clipPath id="clip0_936_185">
<rect width="39.3811" height="39.3811" fill="white" transform="translate(0.950684)"/>
</clipPath>
</defs>
</svg>
