<svg width="40" height="40" viewBox="0 0 40 40" fill="none" xmlns="http://www.w3.org/2000/svg">
<g clip-path="url(#clip0_936_278)">
<path d="M39.9588 18.1523H36.8821V10.4607C36.8821 7.91598 34.8118 5.8457 32.2671 5.8457C31.199 5.8457 30.1572 6.21936 29.3338 6.89776L22.624 12.6477C21.9339 12.2362 21.1284 11.999 20.2682 11.999C19.408 11.999 18.6026 12.2362 17.9125 12.6476L11.2255 6.91692L11.2026 6.89769C10.3792 6.21936 9.3374 5.8457 8.26926 5.8457C5.72456 5.8457 3.65429 7.91598 3.65429 10.4607V18.1523H0.577637V21.229H3.65429V28.9206C3.65429 31.4653 5.72456 33.5356 8.26926 33.5356C9.3374 33.5356 10.3792 33.1619 11.2026 32.4835L17.9124 26.7335C18.6025 27.145 19.408 27.3823 20.2682 27.3823C21.1284 27.3823 21.9338 27.145 22.6239 26.7336L29.3109 32.4643L29.3337 32.4835C30.1571 33.1619 31.1988 33.5356 32.2671 33.5356C34.8118 33.5356 36.8821 31.4653 36.8821 28.9206V21.229H39.9588V18.1523ZM9.23672 30.1167C9.04189 30.2747 8.7183 30.4589 8.26926 30.4589C7.42103 30.4589 6.73094 29.7688 6.73094 28.9206V10.4607C6.73094 9.61245 7.42103 8.92235 8.26926 8.92235C8.7183 8.92235 9.04189 9.10657 9.23672 9.26455L15.9411 15.0102C15.7552 15.51 15.6532 16.0503 15.6532 16.614V18.1523H12.5766V21.229H15.6532V22.7673C15.6532 23.331 15.7552 23.8713 15.9411 24.3711L9.23672 30.1167ZM20.2682 24.3056C19.42 24.3056 18.7299 23.6155 18.7299 22.7673V16.614C18.7299 15.7657 19.42 15.0757 20.2682 15.0757C21.1164 15.0757 21.8065 15.7657 21.8065 16.614V22.7673C21.8065 23.6155 21.1164 24.3056 20.2682 24.3056ZM33.8055 28.9206C33.8055 29.7688 33.1154 30.4589 32.2671 30.4589C31.818 30.4589 31.4945 30.2748 31.2998 30.1168L24.5953 24.3711C24.7812 23.8713 24.8832 23.331 24.8832 22.7673V21.229H27.9598V18.1523H24.8832V16.614C24.8832 16.0503 24.7812 15.51 24.5953 15.0101L31.2997 9.26448C31.4945 9.10649 31.8181 8.92228 32.2671 8.92228C33.1154 8.92228 33.8055 9.61237 33.8055 10.4606V28.9206Z" fill="#FBEF39"/>
</g>
<defs>
<clipPath id="clip0_936_278">
<rect width="39.3811" height="39.3811" fill="white" transform="translate(0.577637)"/>
</clipPath>
</defs>
</svg>
