<svg width="40" height="40" viewBox="0 0 40 40" fill="none" xmlns="http://www.w3.org/2000/svg">
<g clip-path="url(#clip0_936_193)">
<path d="M14.9084 21.4784L19.8956 19.2312L24.8829 21.4785L24.2868 16.0411L27.9651 11.9923L22.6096 10.8787L19.8956 6.12939L17.1817 10.8787L11.8262 11.9922L15.5045 16.041L14.9084 21.4784ZM19.1652 13.6087L19.8956 12.3305L20.626 13.6087L22.0675 13.9085L21.0774 14.9982L21.2378 16.4614L19.8956 15.8566L18.5533 16.4614L18.7137 14.9982L17.7236 13.9085L19.1652 13.6087Z" fill="#FBEF39"/>
<path d="M19.8957 33.9211L30.1858 23.1068L30.2179 23.072C32.4896 20.5322 33.7406 17.2553 33.7406 13.8449C33.7406 6.21083 27.5298 0 19.8957 0C12.2616 0 6.05078 6.21083 6.05078 13.8449C6.05078 17.2553 7.30182 20.5322 9.57347 23.072L19.8957 33.9211ZM19.8957 3.07665C25.8333 3.07665 30.664 7.9073 30.664 13.8449C30.664 16.4898 29.6967 19.0313 27.9398 21.0038L19.8957 29.4578L11.8516 21.0038C10.0947 19.0313 9.12743 16.4898 9.12743 13.8449C9.12743 7.9073 13.9581 3.07665 19.8957 3.07665Z" fill="#FBEF39"/>
<path d="M29.2407 28.5634L26.8973 31.0261C27.3032 31.1419 27.6919 31.2677 28.0577 31.4049C30.1852 32.2027 30.664 33.0084 30.664 33.2278C30.664 33.4472 30.1852 34.2529 28.0577 35.0507C25.9016 35.8592 23.003 36.3045 19.8957 36.3045C16.7884 36.3045 13.8898 35.8592 11.7337 35.0507C9.60624 34.2529 9.12743 33.4472 9.12743 33.2278C9.12743 33.0084 9.60624 32.2027 11.7337 31.4049C12.0997 31.2677 12.4887 31.1418 12.8948 31.0258L10.5515 28.563C6.83548 29.9855 6.05078 31.8817 6.05078 33.2278C6.05078 34.5862 6.84933 36.5049 10.6535 37.9315C13.1463 38.8663 16.4286 39.3811 19.8957 39.3811C23.3628 39.3811 26.6451 38.8663 29.138 37.9315C32.9421 36.5049 33.7406 34.5862 33.7406 33.2278C33.7406 31.8818 32.9561 29.9857 29.2407 28.5634Z" fill="#FBEF39"/>
</g>
<defs>
<clipPath id="clip0_936_193">
<rect width="39.3811" height="39.3811" fill="white" transform="translate(0.205078)"/>
</clipPath>
</defs>
</svg>
