<svg width="41" height="40" viewBox="0 0 41 40" fill="none" xmlns="http://www.w3.org/2000/svg">
<g clip-path="url(#clip0_936_315)">
<path d="M32.0688 6.83655C32.4326 6.17707 32.6402 5.4199 32.6402 4.61498C32.6402 2.07028 30.5699 0 28.0252 0C25.4805 0 23.4102 2.07028 23.4102 4.61498C23.4102 5.4199 23.6178 6.17707 23.9816 6.83655C22.0793 7.50026 20.3886 8.61839 19.0396 10.0605C17.3147 9.13834 15.3461 8.61462 13.2573 8.61462C6.47142 8.61462 0.950684 14.1354 0.950684 20.9212C0.950684 26.2911 4.40822 30.868 9.21372 32.5446C8.84991 33.2041 8.64231 33.9612 8.64231 34.7661C8.64231 37.3108 10.7126 39.3811 13.2573 39.3811C15.802 39.3811 17.8723 37.3108 17.8723 34.7661C17.8723 33.9612 17.6647 33.2041 17.3008 32.5446C19.2031 31.8809 20.8939 30.7627 22.2429 29.3206C23.9678 30.2428 25.9364 30.7665 28.0252 30.7665C34.8111 30.7665 40.3318 25.2458 40.3318 18.4599C40.3318 13.09 36.8743 8.51309 32.0688 6.83655ZM26.4869 4.61498C26.4869 3.76674 27.177 3.07665 28.0252 3.07665C28.8734 3.07665 29.5635 3.76674 29.5635 4.61498C29.5635 5.46321 28.8734 6.1533 28.0252 6.1533C27.177 6.1533 26.4869 5.46321 26.4869 4.61498ZM21.53 25.011C19.8422 23.3375 18.7953 21.0188 18.7953 18.4599C18.7953 16.992 19.1402 15.6035 19.7525 14.3701C21.4403 16.0436 22.4872 18.3623 22.4872 20.9212C22.4872 22.3891 22.1423 23.7777 21.53 25.011ZM14.7956 34.7661C14.7956 35.6144 14.1055 36.3045 13.2573 36.3045C12.4091 36.3045 11.719 35.6144 11.719 34.7661C11.719 33.9179 12.4091 33.2278 13.2573 33.2278C14.1055 33.2278 14.7956 33.9179 14.7956 34.7661ZM13.2573 30.1512C8.16789 30.1512 4.02733 26.0106 4.02733 20.9212C4.02733 15.8318 8.16789 11.6913 13.2573 11.6913C14.6727 11.6913 16.0145 12.0119 17.2145 12.5837C16.261 14.3309 15.7186 16.3332 15.7186 18.4599C15.7186 22.0404 17.2559 25.2681 19.7047 27.519C18.0398 29.1464 15.7638 30.1512 13.2573 30.1512ZM28.0252 27.6899C26.6098 27.6899 25.268 27.3692 24.068 26.7974C25.0215 25.0502 25.5639 23.0479 25.5639 20.9212C25.5639 17.3408 24.0266 14.1131 21.5778 11.8621C23.2427 10.2347 25.5187 9.22995 28.0252 9.22995C33.1146 9.22995 37.2552 13.3705 37.2552 18.4599C37.2552 23.5493 33.1146 27.6899 28.0252 27.6899Z" fill="#FBEF39"/>
</g>
<defs>
<clipPath id="clip0_936_315">
<rect width="39.3811" height="39.3811" fill="white" transform="translate(0.950684)"/>
</clipPath>
</defs>
</svg>
