<svg width="40" height="40" viewBox="0 0 40 40" fill="none" xmlns="http://www.w3.org/2000/svg">
<g clip-path="url(#clip0_936_337)">
<path d="M39.9588 33.2267V30.15H36.8821V22.4584C36.8821 20.4529 35.5959 18.7431 33.8055 18.108V13.8438C33.8055 11.2991 31.7352 9.22878 29.1905 9.22878H25.2564L26.6081 7.87713C28.4118 6.07352 28.4118 3.15424 26.6082 1.35056C24.8696 -0.387902 22.078 -0.446743 20.2682 1.17388C18.4584 -0.44682 15.6666 -0.387902 13.9283 1.35048C12.1247 3.15409 12.1246 6.07345 13.9283 7.87706L15.2799 9.22878H11.3459C8.80122 9.22878 6.73094 11.2991 6.73094 13.8438V18.108C4.94048 18.743 3.65429 20.4529 3.65429 22.4584V30.15H0.577637V33.2267H18.7299V36.3033H12.5766V39.3799H27.9598V36.3033H21.8065V33.2267H39.9588ZM16.1038 3.52606C16.7051 2.9248 17.678 2.9248 18.2793 3.52606L20.2682 5.51488L22.2571 3.52606C22.8583 2.9248 23.8313 2.92488 24.4326 3.52606C25.0338 4.12731 25.0338 5.10046 24.4325 5.70156L20.2682 9.86603L16.1038 5.70156C15.5025 5.1003 15.5026 4.12731 16.1038 3.52606ZM11.3459 12.3054H18.3565L20.2682 14.217L22.1798 12.3054H29.1905C30.0387 12.3054 30.7288 12.9954 30.7288 13.8437V17.8433H9.80759V13.8437C9.80759 12.9955 10.4977 12.3054 11.3459 12.3054ZM6.73094 22.4584C6.73094 21.6101 7.42103 20.9201 8.26926 20.9201H32.2671C33.1154 20.9201 33.8055 21.6101 33.8055 22.4584V30.15H6.73094V22.4584Z" fill="#FBEF39"/>
<path d="M18.0884 25.5344L20.2636 23.3592L22.4388 25.5344L20.2636 27.7096L18.0884 25.5344Z" fill="#FBEF39"/>
<path d="M10.3975 25.5337L12.5727 23.3585L14.7478 25.5337L12.5727 27.7089L10.3975 25.5337Z" fill="#FBEF39"/>
<path d="M25.7788 25.5359L27.954 23.3607L30.1292 25.5359L27.9541 27.7111L25.7788 25.5359Z" fill="#FBEF39"/>
</g>
<defs>
<clipPath id="clip0_936_337">
<rect width="39.3811" height="39.3811" fill="white" transform="translate(0.577637)"/>
</clipPath>
</defs>
</svg>
