<svg width="40" height="40" viewBox="0 0 40 40" fill="none" xmlns="http://www.w3.org/2000/svg">
<g clip-path="url(#clip0_936_162)">
<path d="M26.8408 6.21338L17.6252 15.4289L15.7115 15.0462C13.5012 14.6042 11.2303 15.2917 9.63643 16.8856L1.559 24.963C-0.246229 26.7682 -0.246229 29.6899 1.559 31.4951L8.09116 38.0273C9.89632 39.8325 12.8182 39.8325 14.6233 38.0273L22.7008 29.9499C24.2946 28.3561 24.9823 26.085 24.5402 23.8748L24.1574 21.9611L33.373 12.7455L26.8408 6.21338ZM29.0182 12.7455L26.8408 14.923L24.6634 12.7455L26.8408 10.5682L29.0182 12.7455ZM20.5234 27.7724L12.4459 35.8499C11.8442 36.4517 10.8703 36.4516 10.2685 35.8499L3.73636 29.3178C3.13459 28.7161 3.13459 27.7421 3.73636 27.1404L11.8138 19.0629C12.6778 18.1989 13.9093 17.826 15.1075 18.0657L16.5916 18.3625V22.9946H21.2238L21.5206 24.4787C21.7603 25.6771 21.3875 26.9083 20.5234 27.7724ZM21.8482 19.9154H19.6709V17.7381L22.486 14.923L24.6633 17.1003L21.8482 19.9154Z" fill="#FBEF39"/>
<path d="M28.6108 4.77344L29.7002 0.0994483L32.6994 0.798446L31.6101 5.47244L28.6108 4.77344Z" fill="#FBEF39"/>
<path d="M34.1157 7.97559L38.7897 6.88627L39.4887 9.88549L34.8147 10.9748L34.1157 7.97559Z" fill="#FBEF39"/>
<path d="M34.458 2.95142L37.4048 0.00466426L39.5819 2.18177L36.6351 5.12852L34.458 2.95142Z" fill="#FBEF39"/>
<path d="M9.25293 25.9727L11.43 23.7956L15.7851 28.1507L13.6081 30.3278L9.25293 25.9727Z" fill="#FBEF39"/>
</g>
<defs>
<clipPath id="clip0_936_162">
<rect width="39.3811" height="39.3811" fill="white" transform="translate(0.205078)"/>
</clipPath>
</defs>
</svg>
