<svg width="60" height="60" viewBox="0 0 60 60" fill="none" xmlns="http://www.w3.org/2000/svg">
<g clip-path="url(#clip0_841_3556)">
<path d="M60 4.6875V0H45.9375V4.6875H50.625V8.84063C49.6646 9.17848 48.7635 9.73031 47.9968 10.497L44.9667 13.5271L41.6531 10.2135L38.3385 13.528L41.7019 16.8914L29.876 29.4593L18.2832 16.9063L21.6615 13.528L18.347 10.2135L15.0325 13.528L12.003 10.497C11.2365 9.73031 10.3354 9.17848 9.375 8.84063V4.6875H14.0625V0H0V4.6875H4.6875V8.84063C3.72715 9.17848 2.82598 9.73031 2.05945 10.497C-0.682031 13.2384 -0.682031 17.6991 2.05945 20.4407L5.08969 23.4709L1.77598 26.7846L5.09051 30.0991L7.73531 27.4543L15.9227 44.2884L5.54965 55.3125H0V60H60V55.3125H54.4419L43.9236 44.2689L52.2483 27.4379L54.9094 30.099L58.224 26.7845L54.9103 23.4708L57.9405 20.4405C60.682 17.6991 60.682 13.2384 57.9405 10.4968C57.174 9.73031 56.2729 9.17848 55.3125 8.84063V4.6875H60ZM5.37398 17.126C4.46016 16.2122 4.46016 14.7253 5.37398 13.8115C6.28781 12.8977 7.77469 12.8977 8.68852 13.8115L11.7188 16.8417L8.40422 20.1562L5.37398 17.126ZM11.2421 23.9474L14.966 20.2235L26.6558 32.8816L19.359 40.6364L11.2421 23.9474ZM47.9686 55.3125H38.4615L41.7111 48.7424L47.9686 55.3125ZM33.232 55.3125H11.9861L45.0178 20.2075L48.7494 23.9391L33.232 55.3125ZM54.626 17.126L51.5958 20.1562L48.2812 16.8417L51.3115 13.8115C52.2252 12.8977 53.7122 12.8977 54.6259 13.8115C55.5398 14.7253 55.5398 16.2122 54.626 17.126Z" fill="#FBEF39"/>
</g>
<defs>
<clipPath id="clip0_841_3556">
<rect width="60" height="60" fill="white"/>
</clipPath>
</defs>
</svg>
