<svg width="87" height="76" viewBox="0 0 87 76" fill="none" xmlns="http://www.w3.org/2000/svg">
<mask id="path-1-outside-1_841_2420" maskUnits="userSpaceOnUse" x="-4.26953" y="0.52417" width="91" height="75" fill="black">
<rect fill="white" x="-4.26953" y="0.52417" width="91" height="75"/>
<path d="M73.6976 11.7805C78.26 16.658 80.7096 22.1283 80.7096 30.996C80.7096 46.6001 69.8306 60.5859 53.9993 67.5008L50.0437 61.3572C64.8163 53.3144 67.7044 42.8774 68.8605 36.2969C66.4818 37.5363 63.3678 37.9688 60.3114 37.6835C52.3205 36.9389 46.0217 30.3361 46.0217 22.1283C46.0217 17.9899 47.6551 14.0209 50.5625 11.0945C53.47 8.16818 57.4134 6.52417 61.5252 6.52417C66.2781 6.52417 70.8272 8.70875 73.6976 11.7805ZM29.402 11.7805C33.9644 16.658 36.414 22.1283 36.414 30.996C36.414 46.6001 25.5349 60.5859 9.70368 67.5008L5.74808 61.3572C20.5207 53.3144 23.4088 42.8774 24.5604 36.2969C22.1818 37.5363 19.0678 37.9688 16.0158 37.6835C8.02488 36.9434 1.73047 30.3406 1.73047 22.1283C1.73047 17.9899 3.36386 14.0209 6.27133 11.0945C9.17879 8.16818 13.1222 6.52417 17.2339 6.52417C21.9869 6.52417 26.536 8.70875 29.4064 11.7805"/>
</mask>
<path d="M73.6976 11.7805C78.26 16.658 80.7096 22.1283 80.7096 30.996C80.7096 46.6001 69.8306 60.5859 53.9993 67.5008L50.0437 61.3572C64.8163 53.3144 67.7044 42.8774 68.8605 36.2969C66.4818 37.5363 63.3678 37.9688 60.3114 37.6835C52.3205 36.9389 46.0217 30.3361 46.0217 22.1283C46.0217 17.9899 47.6551 14.0209 50.5625 11.0945C53.47 8.16818 57.4134 6.52417 61.5252 6.52417C66.2781 6.52417 70.8272 8.70875 73.6976 11.7805ZM29.402 11.7805C33.9644 16.658 36.414 22.1283 36.414 30.996C36.414 46.6001 25.5349 60.5859 9.70368 67.5008L5.74808 61.3572C20.5207 53.3144 23.4088 42.8774 24.5604 36.2969C22.1818 37.5363 19.0678 37.9688 16.0158 37.6835C8.02488 36.9434 1.73047 30.3406 1.73047 22.1283C1.73047 17.9899 3.36386 14.0209 6.27133 11.0945C9.17879 8.16818 13.1222 6.52417 17.2339 6.52417C21.9869 6.52417 26.536 8.70875 29.4064 11.7805" fill="#FBEF39"/>
<path d="M73.6976 11.7805L69.3136 15.877L69.3158 15.8793L73.6976 11.7805ZM53.9993 67.5008L48.9545 70.7489L51.7199 75.0438L56.4009 72.9992L53.9993 67.5008ZM50.0437 61.3572L47.1747 56.0876L41.5029 59.1756L44.9989 64.6053L50.0437 61.3572ZM68.8605 36.2969L74.77 37.3351L76.8747 25.3555L66.088 30.9759L68.8605 36.2969ZM60.3114 37.6835L60.8692 31.7094L60.8681 31.7093L60.3114 37.6835ZM61.5252 6.52417V0.52417V6.52417ZM9.70368 67.5008L4.65891 70.7489L7.42422 75.0438L12.1053 72.9992L9.70368 67.5008ZM5.74808 61.3572L2.87908 56.0876L-2.7927 59.1756L0.703311 64.6053L5.74808 61.3572ZM24.5604 36.2969L30.4706 37.3313L32.5657 25.3601L21.7879 30.9759L24.5604 36.2969ZM16.0158 37.6835L16.5743 31.7095L16.5691 31.709L16.0158 37.6835ZM1.73047 22.1283H-4.26953H1.73047ZM17.2339 6.52417V0.52417V6.52417ZM69.3158 15.8793C72.7804 19.5831 74.7096 23.5632 74.7096 30.996H86.7096C86.7096 20.6935 83.7397 13.7328 78.0793 7.68174L69.3158 15.8793ZM74.7096 30.996C74.7096 43.664 65.7972 55.8003 51.5977 62.0024L56.4009 72.9992C73.864 65.3716 86.7096 49.5363 86.7096 30.996H74.7096ZM59.0441 64.2527L55.0885 58.1091L44.9989 64.6053L48.9545 70.7489L59.0441 64.2527ZM52.9127 66.6268C61.161 62.1361 66.3788 56.8031 69.6772 51.4087C72.9513 46.0541 74.1329 40.9616 74.77 37.3351L62.951 35.2587C62.432 38.2128 61.5915 41.629 59.4394 45.1487C57.3116 48.6286 53.699 52.5355 47.1747 56.0876L52.9127 66.6268ZM66.088 30.9759C65.0022 31.5417 63.1202 31.9196 60.8692 31.7094L59.7537 43.6575C63.6155 44.018 67.9615 43.531 71.633 41.6179L66.088 30.9759ZM60.8681 31.7093C55.8561 31.2424 52.0217 27.133 52.0217 22.1283H40.0217C40.0217 33.5392 48.7849 42.6355 59.7548 43.6576L60.8681 31.7093ZM52.0217 22.1283C52.0217 19.5687 53.0323 17.1216 54.8189 15.3234L46.3062 6.86564C42.2778 10.9201 40.0217 16.411 40.0217 22.1283H52.0217ZM54.8189 15.3234C56.6042 13.5265 59.0173 12.5242 61.5252 12.5242V0.52417C55.8095 0.52417 50.3358 2.80982 46.3062 6.86564L54.8189 15.3234ZM61.5252 12.5242C64.5382 12.5242 67.5235 13.9613 69.3136 15.877L78.0815 7.68408C74.1309 3.45622 68.018 0.52417 61.5252 0.52417V12.5242ZM25.0202 15.8793C28.4848 19.5831 30.4139 23.5632 30.4139 30.996H42.414C42.414 20.6935 39.444 13.7328 33.7837 7.68174L25.0202 15.8793ZM30.4139 30.996C30.4139 43.664 21.5016 55.8003 7.30206 62.0024L12.1053 72.9992C29.5683 65.3716 42.414 49.5363 42.414 30.996H30.4139ZM14.7485 64.2527L10.7929 58.1091L0.703311 64.6053L4.65891 70.7489L14.7485 64.2527ZM8.61709 66.6268C16.8653 62.1361 22.0833 56.8031 25.3813 51.4082C28.6551 46.053 29.8356 40.9598 30.4706 37.3313L18.6503 35.2626C18.1336 38.2145 17.2942 41.6301 15.1429 45.1492C13.0158 48.6286 9.40345 52.5354 2.87908 56.0876L8.61709 66.6268ZM21.7879 30.9759C20.7016 31.542 18.8195 31.9194 16.5743 31.7095L15.4573 43.6574C19.3161 44.0182 23.662 43.5307 27.333 41.6179L21.7879 30.9759ZM16.5691 31.709C11.5639 31.2455 7.73047 27.1415 7.73047 22.1283H-4.26953C-4.26953 33.5397 4.48582 42.6413 15.4625 43.6579L16.5691 31.709ZM7.73047 22.1283C7.73047 19.5687 8.7411 17.1216 10.5277 15.3234L2.01498 6.86564C-2.01337 10.9201 -4.26953 16.411 -4.26953 22.1283L7.73047 22.1283ZM10.5277 15.3234C12.313 13.5265 14.726 12.5242 17.2339 12.5242V0.52417C11.5183 0.52417 6.04463 2.80982 2.01498 6.86564L10.5277 15.3234ZM17.2339 12.5242C20.247 12.5242 23.2323 13.9613 25.0224 15.877L33.7903 7.68408C29.8397 3.45622 23.7267 0.52417 17.2339 0.52417V12.5242Z" fill="#252525" mask="url(#path-1-outside-1_841_2420)"/>
</svg>
