<svg width="38" height="38" viewBox="0 0 38 38" fill="none" xmlns="http://www.w3.org/2000/svg">
<path fill-rule="evenodd" clip-rule="evenodd" d="M19 38.0029C29.4934 38.0029 38 29.4963 38 19.0029C38 8.50952 29.4934 0.00292969 19 0.00292969C8.50659 0.00292969 0 8.50952 0 19.0029C0 29.4963 8.50659 38.0029 19 38.0029ZM22.5 20.5029H20V29.0029H16V20.5029H13V16.5029H16V13.7029C16 10.6599 17.928 9.00293 20.643 9.00293C21.943 9.00293 23.174 9.09993 23.5 9.14293V12.5029H22C20 12.5029 20 13.4729 20 14.5029V16.5029H23.5L22.5 20.5029Z" fill="white"/>
</svg>
