<svg width="38" height="38" viewBox="0 0 38 38" fill="none" xmlns="http://www.w3.org/2000/svg">
<path fill-rule="evenodd" clip-rule="evenodd" d="M19 38.0029C29.4934 38.0029 38 29.4963 38 19.0029C38 8.50952 29.4934 0.00292969 19 0.00292969C8.50659 0.00292969 0 8.50952 0 19.0029C0 29.4963 8.50659 38.0029 19 38.0029ZM29 14.8029C29 11.6029 26.4 9.00293 23.2 9.00293H14.8C13.2617 9.00293 11.7865 9.614 10.6988 10.7017C9.61107 11.7894 9 13.2647 9 14.8029V23.2029C9 26.4029 11.6 29.0029 14.8 29.0029H23.2C24.7383 29.0029 26.2135 28.3919 27.3012 27.3041C28.3889 26.2164 29 24.7412 29 23.2029V14.8029ZM12.0544 12.0573C12.7295 11.3822 13.6452 11.0029 14.6 11.0029H23.4C25.39 11.0029 27 12.6129 27 14.6029V23.4029C27 24.3577 26.6207 25.2734 25.9456 25.9485C25.2705 26.6236 24.3548 27.0029 23.4 27.0029H14.6C12.61 27.0029 11 25.3929 11 23.4029V14.6029C11 13.6482 11.3793 12.7325 12.0544 12.0573ZM25.1339 12.869C24.8995 12.6346 24.5815 12.5029 24.25 12.5029C23.9185 12.5029 23.6005 12.6346 23.3661 12.869C23.1317 13.1035 23 13.4214 23 13.7529C23 14.0844 23.1317 14.4024 23.3661 14.6368C23.6005 14.8712 23.9185 15.0029 24.25 15.0029C24.5815 15.0029 24.8995 14.8712 25.1339 14.6368C25.3683 14.4024 25.5 14.0844 25.5 13.7529C25.5 13.4214 25.3683 13.1035 25.1339 12.869ZM22.5355 15.4674C21.5979 14.5297 20.3261 14.0029 19 14.0029C17.6739 14.0029 16.4021 14.5297 15.4645 15.4674C14.5268 16.4051 14 17.6768 14 19.0029C14 20.329 14.5268 21.6008 15.4645 22.5385C16.4021 23.4761 17.6739 24.0029 19 24.0029C20.3261 24.0029 21.5979 23.4761 22.5355 22.5385C23.4732 21.6008 24 20.329 24 19.0029C24 17.6768 23.4732 16.4051 22.5355 15.4674ZM16.8787 16.8816C17.4413 16.319 18.2043 16.0029 19 16.0029C19.7957 16.0029 20.5587 16.319 21.1213 16.8816C21.6839 17.4442 22 18.2073 22 19.0029C22 19.7986 21.6839 20.5616 21.1213 21.1243C20.5587 21.6869 19.7957 22.0029 19 22.0029C18.2043 22.0029 17.4413 21.6869 16.8787 21.1243C16.3161 20.5616 16 19.7986 16 19.0029C16 18.2073 16.3161 17.4442 16.8787 16.8816Z" fill="white"/>
</svg>
