<svg width="38" height="38" viewBox="0 0 38 38" fill="none" xmlns="http://www.w3.org/2000/svg">
<path fill-rule="evenodd" clip-rule="evenodd" d="M19 38.0029C29.4934 38.0029 38 29.4963 38 19.0029C38 8.50952 29.4934 0.00292969 19 0.00292969C8.50659 0.00292969 0 8.50952 0 19.0029C0 29.4963 8.50659 38.0029 19 38.0029ZM26.9991 13.6929C27.8591 13.5829 28.6891 13.3529 29.4591 13.0029C28.8791 13.8729 28.1591 14.6329 27.3191 15.2329C27.3291 15.4229 27.3291 15.6029 27.3291 15.7929C27.3291 21.4629 22.9991 28.0029 15.1191 28.0029C12.6991 28.0029 10.4391 27.2929 8.53906 26.0729C8.87906 26.1129 9.21906 26.1329 9.55906 26.1329C11.4931 26.1422 13.3727 25.4934 14.8891 24.2929C13.9945 24.2766 13.1276 23.9804 12.4101 23.4459C11.6926 22.9113 11.1607 22.1654 10.8891 21.3129C11.5292 21.4391 12.1898 21.4151 12.8191 21.2429C10.8591 20.8529 9.37906 19.1129 9.37906 17.0329V17.0029C9.95906 17.3029 10.6191 17.5029 11.3291 17.5029C10.1691 16.7529 9.41906 15.4329 9.41906 13.9429C9.41906 13.1629 9.62906 12.4229 9.99906 11.7929C12.1091 14.3829 15.2791 16.0929 18.8391 16.2729C18.7691 15.9629 18.7291 15.6329 18.7291 15.2929C18.7291 12.9229 20.6491 11.0029 22.9991 11.0029C24.2591 11.0029 25.3691 11.5029 26.1591 12.3629C27.1291 12.1629 28.0491 11.8129 28.8791 11.3129C28.5591 12.3229 27.8791 13.1629 26.9991 13.6929Z" fill="white"/>
</svg>
