<svg width="38" height="38" viewBox="0 0 38 38" fill="none" xmlns="http://www.w3.org/2000/svg">
<path fill-rule="evenodd" clip-rule="evenodd" d="M19 38.0029C29.4934 38.0029 38 29.4963 38 19.0029C38 8.50952 29.4934 0.00292969 19 0.00292969C8.50659 0.00292969 0 8.50952 0 19.0029C0 29.4963 8.50659 38.0029 19 38.0029ZM22.54 10.0029C22.5397 11.0404 22.9164 12.0426 23.6 12.8229C24.96 14.3929 26.84 14.3029 26.84 14.3029V17.3929C25.2974 17.3956 23.793 16.9128 22.54 16.0129V22.3029C22.54 25.4529 19.99 28.0029 16.85 28.0029C13.92 28.0029 11.16 25.6329 11.16 22.3029C11.16 18.8829 14.18 16.2029 17.63 16.6629V19.8229C15.92 19.2929 14.26 20.5829 14.26 22.3029C14.26 23.7429 15.44 24.9029 16.86 24.9029C17.5314 24.9028 18.1767 24.6422 18.6598 24.1759C19.1429 23.7095 19.4262 23.074 19.45 22.4029V10.0029H22.54Z" fill="white"/>
</svg>
