<svg width="38" height="38" viewBox="0 0 38 38" fill="none" xmlns="http://www.w3.org/2000/svg">
<path fill-rule="evenodd" clip-rule="evenodd" d="M19 38.0029C29.4934 38.0029 38 29.4963 38 19.0029C38 8.50952 29.4934 0.00292969 19 0.00292969C8.50659 0.00292969 0 8.50952 0 19.0029C0 29.4963 8.50659 38.0029 19 38.0029ZM22.19 19.0029L17 22.0029V16.0029L22.19 19.0029ZM28.84 16.0729C28.78 15.2729 28.69 14.6429 28.56 14.1729C28.31 13.2729 27.73 12.6929 26.83 12.4429C25.8 12.1629 23.19 12.0029 19 12.0029L17.41 12.0629C16.31 12.0629 15.12 12.0929 13.82 12.1629C12.5 12.2229 11.64 12.3129 11.17 12.4429C10.27 12.6929 9.69 13.2729 9.44 14.1729C9.16 15.2029 9 16.8129 9 19.0029L9.06 19.8429C9.06 20.4429 9.09 21.1329 9.16 21.9329C9.22 22.7329 9.31 23.3629 9.44 23.8329C9.69 24.7329 10.27 25.3129 11.17 25.5629C12.2 25.8429 14.81 26.0029 19 26.0029L20.59 25.9429C21.69 25.9429 22.88 25.9129 24.18 25.8429C25.5 25.7829 26.36 25.6929 26.83 25.5629C27.73 25.3129 28.31 24.7329 28.56 23.8329C28.84 22.8029 29 21.1929 29 19.0029L28.94 18.1629C28.94 17.5629 28.91 16.8729 28.84 16.0729Z" fill="white"/>
</svg>
