<svg width="101" height="100" viewBox="0 0 101 100" fill="none" xmlns="http://www.w3.org/2000/svg">
<g clip-path="url(#clip0_844_4551)">
<path d="M78.7404 46.7184C89.4136 36.045 89.4136 18.6782 78.7404 8.00479C68.0667 -2.66878 50.7002 -2.66839 40.0266 8.00479C32.3846 15.6468 32.3846 28.0151 40.0266 35.6571C47.6686 43.2991 60.0373 43.2991 67.6793 35.6571C72.2646 31.072 72.2644 23.651 67.6793 19.0657C63.1048 14.4914 55.662 14.4914 51.0875 19.0657L56.6182 24.5962C58.1465 23.0679 60.6202 23.0679 62.1484 24.5962C63.6767 26.1243 63.6769 28.5984 62.1486 30.1266H62.1484C57.5634 34.7119 50.1421 34.7117 45.5569 30.1266C43.3411 27.9107 42.1208 24.9646 42.1208 21.8309C42.1208 18.6973 43.3411 15.751 45.5569 13.5353H45.5571C53.1805 5.91122 65.5857 5.91122 73.2096 13.5353C80.8334 21.1591 80.8332 33.5639 73.2098 41.1878L47.1898 67.2078L36.1288 56.1468L30.5982 61.6773L36.1286 67.208L8.86719 94.4694L14.3978 99.9999L17.1905 97.2071C19.4031 95.0087 22.3379 93.7983 25.4586 93.7983C28.5924 93.7983 31.5387 95.0187 33.7545 97.2346L36.5199 99.9999L52.7202 83.7993L55.4855 86.5646L61.0161 81.0341L52.7202 72.7384L78.7404 46.7184ZM36.242 89.2166C33.7842 87.5911 31.0356 86.5785 28.2176 86.1802L41.6593 72.7384L47.1898 78.2689L36.242 89.2166Z" fill="#FBEF39"/>
<path d="M15.3037 46.1331H23.125V53.9544H15.3037V46.1331Z" fill="white"/>
<path d="M23.125 38.3118H30.9463V46.1331H23.125V38.3118Z" fill="white"/>
<path d="M7.48242 38.3118H15.3038V46.1331H7.48242V38.3118Z" fill="white"/>
<path d="M15.3037 30.4905H23.125V38.3118H15.3037V30.4905Z" fill="white"/>
<path d="M77.874 77.4185H85.6954V85.2398H77.874V77.4185Z" fill="white"/>
<path d="M85.6953 69.5969H93.5166V77.4183H85.6953V69.5969Z" fill="white"/>
<path d="M70.0527 69.5969H77.8741V77.4183H70.0527V69.5969Z" fill="white"/>
<path d="M77.874 61.7759H85.6954V69.5972H77.874V61.7759Z" fill="white"/>
</g>
<defs>
<clipPath id="clip0_844_4551">
<rect width="100" height="100" fill="white" transform="translate(0.5)"/>
</clipPath>
</defs>
</svg>
