<svg width="51" height="50" viewBox="0 0 51 50" fill="none" xmlns="http://www.w3.org/2000/svg">
<circle cx="25.5" cy="25" r="25" fill="#3B3B3B"/>
<path d="M32.5498 17.9101C31.633 16.984 30.541 16.2497 29.3374 15.7501C28.1339 15.2505 26.8429 14.9955 25.5398 15.0001C20.0798 15.0001 15.6298 19.4501 15.6298 24.9101C15.6298 26.6601 16.0898 28.3601 16.9498 29.8601L15.5498 35.0001L20.7998 33.6201C22.2498 34.4101 23.8798 34.8301 25.5398 34.8301C30.9998 34.8301 35.4498 30.3801 35.4498 24.9201C35.4498 22.2701 34.4198 19.7801 32.5498 17.9101ZM25.5398 33.1501C24.0598 33.1501 22.6098 32.7501 21.3398 32.0001L21.0398 31.8201L17.9198 32.6401L18.7498 29.6001L18.5498 29.2901C17.7276 27.977 17.2909 26.4593 17.2898 24.9101C17.2898 20.3701 20.9898 16.6701 25.5298 16.6701C27.7298 16.6701 29.7998 17.5301 31.3498 19.0901C32.1173 19.854 32.7255 20.7627 33.1392 21.7635C33.5529 22.7642 33.7638 23.8372 33.7598 24.9201C33.7798 29.4601 30.0798 33.1501 25.5398 33.1501ZM30.0598 26.9901C29.8098 26.8701 28.5898 26.2701 28.3698 26.1801C28.1398 26.1001 27.9798 26.0601 27.8098 26.3001C27.6398 26.5501 27.1698 27.1101 27.0298 27.2701C26.8898 27.4401 26.7398 27.4601 26.4898 27.3301C26.2398 27.2101 25.4398 26.9401 24.4998 26.1001C23.7598 25.4401 23.2698 24.6301 23.1198 24.3801C22.9798 24.1301 23.0998 24.0001 23.2298 23.8701C23.3398 23.7601 23.4798 23.5801 23.5998 23.4401C23.7198 23.3001 23.7698 23.1901 23.8498 23.0301C23.9298 22.8601 23.8898 22.7201 23.8298 22.6001C23.7698 22.4801 23.2698 21.2601 23.0698 20.7601C22.8698 20.2801 22.6598 20.3401 22.5098 20.3301H22.0298C21.8598 20.3301 21.5998 20.3901 21.3698 20.6401C21.1498 20.8901 20.5098 21.4901 20.5098 22.7101C20.5098 23.9301 21.3998 25.1101 21.5198 25.2701C21.6398 25.4401 23.2698 27.9401 25.7498 29.0101C26.3398 29.2701 26.7998 29.4201 27.1598 29.5301C27.7498 29.7201 28.2898 29.6901 28.7198 29.6301C29.1998 29.5601 30.1898 29.0301 30.3898 28.4501C30.5998 27.8701 30.5998 27.3801 30.5298 27.2701C30.4598 27.1601 30.3098 27.1101 30.0598 26.9901Z" fill="white"/>
</svg>
