<svg width="24" height="24" viewBox="0 0 24 24" fill="none" xmlns="http://www.w3.org/2000/svg">
<path d="M19.0508 4.91299C18.134 3.98691 17.042 3.25266 15.8384 2.75304C14.6349 2.25342 13.3439 1.99845 12.0408 2.00299C6.58078 2.00299 2.13078 6.45299 2.13078 11.913C2.13078 13.663 2.59078 15.363 3.45078 16.863L2.05078 22.003L7.30078 20.623C8.75078 21.413 10.3808 21.833 12.0408 21.833C17.5008 21.833 21.9508 17.383 21.9508 11.923C21.9508 9.27299 20.9208 6.78299 19.0508 4.91299ZM12.0408 20.153C10.5608 20.153 9.11078 19.753 7.84078 19.003L7.54078 18.823L4.42078 19.643L5.25078 16.603L5.05078 16.293C4.22853 14.98 3.79192 13.4622 3.79078 11.913C3.79078 7.37299 7.49078 3.67299 12.0308 3.67299C14.2308 3.67299 16.3008 4.53299 17.8508 6.09299C18.6183 6.85695 19.2265 7.76565 19.6402 8.76641C20.0539 9.76718 20.2648 10.8401 20.2608 11.923C20.2808 16.463 16.5808 20.153 12.0408 20.153ZM16.5608 13.993C16.3108 13.873 15.0908 13.273 14.8708 13.183C14.6408 13.103 14.4808 13.063 14.3108 13.303C14.1408 13.553 13.6708 14.113 13.5308 14.273C13.3908 14.443 13.2408 14.463 12.9908 14.333C12.7408 14.213 11.9408 13.943 11.0008 13.103C10.2608 12.443 9.77078 11.633 9.62078 11.383C9.48078 11.133 9.60078 11.003 9.73078 10.873C9.84078 10.763 9.98078 10.583 10.1008 10.443C10.2208 10.303 10.2708 10.193 10.3508 10.033C10.4308 9.86299 10.3908 9.72299 10.3308 9.60299C10.2708 9.48299 9.77078 8.26299 9.57078 7.76299C9.37078 7.28299 9.16078 7.34299 9.01078 7.33299H8.53078C8.36078 7.33299 8.10078 7.39299 7.87078 7.64299C7.65078 7.89299 7.01078 8.49299 7.01078 9.71299C7.01078 10.933 7.90078 12.113 8.02078 12.273C8.14078 12.443 9.77078 14.943 12.2508 16.013C12.8408 16.273 13.3008 16.423 13.6608 16.533C14.2508 16.723 14.7908 16.693 15.2208 16.633C15.7008 16.563 16.6908 16.033 16.8908 15.453C17.1008 14.873 17.1008 14.383 17.0308 14.273C16.9608 14.163 16.8108 14.113 16.5608 13.993Z" fill="white"/>
</svg>
